<svg fill="none" xmlns="http://www.w3.org/2000/svg">
  <symbol viewBox="0 0 18 18" id="close">
    <path fill-rule="evenodd" clip-rule="evenodd" d="M16.7782 16.7781C16.0619 17.4944 14.9017 17.4944 14.1854 16.7781L9 11.5927L3.81455 16.7781C3.09831 17.4944 1.93806 17.4944 1.22182 16.7781C0.505584 16.0619 0.505586 14.9016 1.22183 14.1854L6.40728 8.99995L1.22183 3.8145C0.505586 3.09826 0.505585 1.93802 1.22183 1.22178C1.93807 0.505538 3.09831 0.505538 3.81455 1.22178L9 6.40723L14.1854 1.22178C14.901 0.506186 16.0619 0.505537 16.7782 1.22178C17.4944 1.93802 17.4938 3.09891 16.7782 3.8145L11.5927 8.99995L16.7782 14.1854C17.4944 14.9016 17.4944 16.0619 16.7782 16.7781Z" />
  </symbol>
</svg>
