<svg fill="none" xmlns="http://www.w3.org/2000/svg">
  <symbol viewBox="0 0 16 16" id="home">
    <path d="M9.46647 10.6087H6.53296V14.6666H9.46647V10.6087Z" />
    <path d="M15.2279 7.19775L11.8132 4.3862V2.20304C11.8132 2.04304 11.6821 1.91319 11.5198 1.91319C11.3576 1.91319 11.2265 2.04304 11.2265 2.20304V3.90302L8.18757 1.40073C8.07874 1.31088 7.92093 1.31088 7.8121 1.40073L0.772078 7.19775C0.647705 7.30036 0.630985 7.48297 0.734532 7.60586C0.838079 7.72876 1.02288 7.74528 1.14755 7.64296L2.42648 6.58994V14.3768C2.42648 14.5371 2.5579 14.6666 2.71982 14.6666H5.94649V10.3189C5.94649 10.1586 6.07791 10.029 6.23983 10.029H9.75984C9.92205 10.029 10.0532 10.1586 10.0532 10.3189V14.6666H13.2799C13.4421 14.6666 13.5732 14.5371 13.5732 14.3768V6.58994L14.8518 7.64296C14.907 7.68818 14.9733 7.71021 15.0396 7.71021C15.1238 7.71021 15.2071 7.67456 15.2654 7.60586C15.369 7.48297 15.352 7.30007 15.2279 7.19775Z"/>
  </symbol>
  <symbol viewBox="0 0 16 16" id="statistic">
    <path fill-rule="evenodd" clip-rule="evenodd" d="M15.3334 13.5V15.3333H0.666687V13.5H15.3334ZM5.25002 8.91666C5.25002 8.4102 4.83981 7.99999 4.33335 7.99999H2.50002C1.99356 7.99999 1.58335 8.4102 1.58335 8.91666V12.5833H5.25002V8.91666ZM9.83335 5.24999C9.83335 4.74353 9.42315 4.33332 8.91669 4.33332H7.08335C6.5769 4.33332 6.16669 4.74353 6.16669 5.24999V12.5833H9.83335V5.24999ZM14.4167 1.58332C14.4167 1.07686 14.0065 0.666656 13.5 0.666656H11.6667C11.1602 0.666656 10.75 1.07686 10.75 1.58332V12.5833H14.4167V1.58332Z"/>
  </symbol>
  <symbol viewBox="0 0 16 16" id="company">
    <path d="M13.6687 1.424C13.552 1.356 10.7887 -0.215344 7.69 1.41C5.78266 2.41134 4.03866 1.88066 3.33334 1.582V0.666656C3.33334 0.298656 3.33331 0 2.66666 0C2 0 2 0.298656 2 0.666656V2V8.67934V15.3333C2 15.702 1.99977 16 2.66666 16C3.33355 16 3.33331 15.702 3.33331 15.3333V9.67666C3.85931 9.846 4.55731 10.0033 5.37066 10.0027C6.252 10.0027 7.26266 9.81931 8.31 9.27C10.7347 7.99534 12.9033 9.20066 13 9.25666C13.2047 9.37466 13.4587 9.376 13.6653 9.25731C13.8727 9.13797 14 8.91797 14 8.67931V2C14 1.76334 13.874 1.54334 13.6687 1.424Z" />
  </symbol>
  <symbol viewBox="0 0 16 16" id="ads">
    <path d="M14.9312 0.0506834L4.8 3.99284V10.0953L5.3984 10.328L4.4968 12.293C4.39411 12.5164 4.3367 12.7612 4.32847 13.0109C4.32024 13.2606 4.36137 13.5093 4.44908 13.7402C4.53679 13.971 4.66903 14.1786 4.83682 14.3489C5.00462 14.5191 5.20405 14.6481 5.4216 14.727L8.6888 15.9135C9.05428 16.0433 9.45031 16.0266 9.80545 15.8662C10.1606 15.7059 10.4515 15.4126 10.6256 15.0391L11.668 12.7672L14.9312 14.0374C15.0519 14.0843 15.1811 14.099 15.3081 14.0801C15.435 14.0613 15.5559 14.0095 15.6607 13.9291C15.7654 13.8487 15.8509 13.742 15.91 13.6181C15.969 13.4942 15.9999 13.3567 16 13.2171V0.871023C15.9999 0.731411 15.969 0.59387 15.91 0.469971C15.8509 0.346072 15.7654 0.23944 15.6607 0.159046C15.5559 0.0786513 15.435 0.0268462 15.3081 0.00798895C15.1811 -0.0108683 15.0519 0.00377377 14.9312 0.0506834ZM9.1944 14.2597L5.928 13.0732L6.916 10.9191L10.1496 12.1779L9.1944 14.2597ZM1.6 10.0953H3.2V3.99284H1.6C0.7176 3.99284 0 4.77483 0 5.73639V8.35171C0 9.31328 0.7176 10.0953 1.6 10.0953Z" />
  </symbol>
  <symbol viewBox="0 0 16 16" id="balance">
    <path fill-rule="evenodd" clip-rule="evenodd" d="M13.5 3.41666V1.58333C13.5 1.07687 13.0898 0.666664 12.5834 0.666664H11.6662H3.41623C1.89731 0.666664 0.666687 1.89866 0.666687 3.41666V14.4167C0.666687 14.9231 1.07644 15.3333 1.5829 15.3333H14.4167C14.9231 15.3333 15.3334 14.9231 15.3334 14.4167V3.41666H13.5ZM3.41623 2.5H11.6667V3.41666H2.49956C2.49956 2.91021 2.90977 2.5 3.41623 2.5ZM12.5834 9.83333C12.0769 9.83333 11.6662 9.42312 11.6662 8.91666C11.6662 8.41021 12.0769 8 12.5834 8C13.0898 8 13.5 8.41021 13.5 8.91666C13.5 9.42312 13.0898 9.83333 12.5834 9.83333Z" />
  </symbol>
  <symbol viewBox="0 0 16 16" id="faq">
    <path fill-rule="evenodd" clip-rule="evenodd" d="M13.185 0.666666H2.81491C1.99245 0.666666 1.33331 1.2955 1.33331 2.06367V11.8414C1.33331 12.6096 1.99245 13.2378 2.81494 13.2378H5.77755L7.99998 15.3333L10.2218 13.2378H13.185C13.9997 13.2378 14.6666 12.6096 14.6666 11.8414V2.06367C14.6666 1.2955 13.9997 0.666666 13.185 0.666666ZM8.74078 11.8414H7.25915V10.4444H8.74078V11.8414ZM10.2736 6.42882L9.60732 7.07109C9.07392 7.58075 8.74078 7.99999 8.74078 9.04741H7.25915V8.69847C7.25915 7.9303 7.59229 7.23182 8.12569 6.72215L9.04409 5.84216C9.3176 5.59038 9.48158 5.24206 9.48158 4.85765C9.48158 4.08948 8.814 3.46065 7.99995 3.46065C7.18525 3.46065 6.51832 4.08948 6.51832 4.85765H5.03734C5.03734 3.31461 6.36341 2.06426 7.99995 2.06426C9.63649 2.06426 10.9626 3.31458 10.9626 4.85765C10.9626 5.47183 10.6962 6.03039 10.2736 6.42882Z" />
  </symbol>
</svg>