<svg fill="none" xmlns="http://www.w3.org/2000/svg">
  <symbol viewBox="0 0 18 18" id="close">
    <path fill-rule="evenodd" clip-rule="evenodd" d="M16.7782 16.7781C16.0619 17.4944 14.9017 17.4944 14.1854 16.7781L9 11.5927L3.81455 16.7781C3.09831 17.4944 1.93806 17.4944 1.22182 16.7781C0.505584 16.0619 0.505586 14.9016 1.22183 14.1854L6.40728 8.99995L1.22183 3.8145C0.505586 3.09826 0.505585 1.93802 1.22183 1.22178C1.93807 0.505538 3.09831 0.505538 3.81455 1.22178L9 6.40723L14.1854 1.22178C14.901 0.506186 16.0619 0.505537 16.7782 1.22178C17.4944 1.93802 17.4938 3.09891 16.7782 3.8145L11.5927 8.99995L16.7782 14.1854C17.4944 14.9016 17.4944 16.0619 16.7782 16.7781Z" />
  </symbol>
  <symbol viewBox="0 0 16 16" id="home">
    <path d="M9.46647 10.6087H6.53296V14.6666H9.46647V10.6087Z" />
    <path d="M15.2279 7.19775L11.8132 4.3862V2.20304C11.8132 2.04304 11.6821 1.91319 11.5198 1.91319C11.3576 1.91319 11.2265 2.04304 11.2265 2.20304V3.90302L8.18757 1.40073C8.07874 1.31088 7.92093 1.31088 7.8121 1.40073L0.772078 7.19775C0.647705 7.30036 0.630985 7.48297 0.734532 7.60586C0.838079 7.72876 1.02288 7.74528 1.14755 7.64296L2.42648 6.58994V14.3768C2.42648 14.5371 2.5579 14.6666 2.71982 14.6666H5.94649V10.3189C5.94649 10.1586 6.07791 10.029 6.23983 10.029H9.75984C9.92205 10.029 10.0532 10.1586 10.0532 10.3189V14.6666H13.2799C13.4421 14.6666 13.5732 14.5371 13.5732 14.3768V6.58994L14.8518 7.64296C14.907 7.68818 14.9733 7.71021 15.0396 7.71021C15.1238 7.71021 15.2071 7.67456 15.2654 7.60586C15.369 7.48297 15.352 7.30007 15.2279 7.19775Z"/>
  </symbol>
  <symbol viewBox="0 0 16 16" id="statistic">
    <path fill-rule="evenodd" clip-rule="evenodd" d="M15.3334 13.5V15.3333H0.666687V13.5H15.3334ZM5.25002 8.91666C5.25002 8.4102 4.83981 7.99999 4.33335 7.99999H2.50002C1.99356 7.99999 1.58335 8.4102 1.58335 8.91666V12.5833H5.25002V8.91666ZM9.83335 5.24999C9.83335 4.74353 9.42315 4.33332 8.91669 4.33332H7.08335C6.5769 4.33332 6.16669 4.74353 6.16669 5.24999V12.5833H9.83335V5.24999ZM14.4167 1.58332C14.4167 1.07686 14.0065 0.666656 13.5 0.666656H11.6667C11.1602 0.666656 10.75 1.07686 10.75 1.58332V12.5833H14.4167V1.58332Z"/>
  </symbol>
  <symbol viewBox="0 0 16 16" id="company">
    <path d="M13.6687 1.424C13.552 1.356 10.7887 -0.215344 7.69 1.41C5.78266 2.41134 4.03866 1.88066 3.33334 1.582V0.666656C3.33334 0.298656 3.33331 0 2.66666 0C2 0 2 0.298656 2 0.666656V2V8.67934V15.3333C2 15.702 1.99977 16 2.66666 16C3.33355 16 3.33331 15.702 3.33331 15.3333V9.67666C3.85931 9.846 4.55731 10.0033 5.37066 10.0027C6.252 10.0027 7.26266 9.81931 8.31 9.27C10.7347 7.99534 12.9033 9.20066 13 9.25666C13.2047 9.37466 13.4587 9.376 13.6653 9.25731C13.8727 9.13797 14 8.91797 14 8.67931V2C14 1.76334 13.874 1.54334 13.6687 1.424Z" />
  </symbol>
  <symbol viewBox="0 0 16 16" id="ads">
    <path d="M14.9312 0.0506834L4.8 3.99284V10.0953L5.3984 10.328L4.4968 12.293C4.39411 12.5164 4.3367 12.7612 4.32847 13.0109C4.32024 13.2606 4.36137 13.5093 4.44908 13.7402C4.53679 13.971 4.66903 14.1786 4.83682 14.3489C5.00462 14.5191 5.20405 14.6481 5.4216 14.727L8.6888 15.9135C9.05428 16.0433 9.45031 16.0266 9.80545 15.8662C10.1606 15.7059 10.4515 15.4126 10.6256 15.0391L11.668 12.7672L14.9312 14.0374C15.0519 14.0843 15.1811 14.099 15.3081 14.0801C15.435 14.0613 15.5559 14.0095 15.6607 13.9291C15.7654 13.8487 15.8509 13.742 15.91 13.6181C15.969 13.4942 15.9999 13.3567 16 13.2171V0.871023C15.9999 0.731411 15.969 0.59387 15.91 0.469971C15.8509 0.346072 15.7654 0.23944 15.6607 0.159046C15.5559 0.0786513 15.435 0.0268462 15.3081 0.00798895C15.1811 -0.0108683 15.0519 0.00377377 14.9312 0.0506834ZM9.1944 14.2597L5.928 13.0732L6.916 10.9191L10.1496 12.1779L9.1944 14.2597ZM1.6 10.0953H3.2V3.99284H1.6C0.7176 3.99284 0 4.77483 0 5.73639V8.35171C0 9.31328 0.7176 10.0953 1.6 10.0953Z" />
  </symbol>
  <symbol viewBox="0 0 16 16" id="balance">
    <path fill-rule="evenodd" clip-rule="evenodd" d="M13.5 3.41666V1.58333C13.5 1.07687 13.0898 0.666664 12.5834 0.666664H11.6662H3.41623C1.89731 0.666664 0.666687 1.89866 0.666687 3.41666V14.4167C0.666687 14.9231 1.07644 15.3333 1.5829 15.3333H14.4167C14.9231 15.3333 15.3334 14.9231 15.3334 14.4167V3.41666H13.5ZM3.41623 2.5H11.6667V3.41666H2.49956C2.49956 2.91021 2.90977 2.5 3.41623 2.5ZM12.5834 9.83333C12.0769 9.83333 11.6662 9.42312 11.6662 8.91666C11.6662 8.41021 12.0769 8 12.5834 8C13.0898 8 13.5 8.41021 13.5 8.91666C13.5 9.42312 13.0898 9.83333 12.5834 9.83333Z" />
  </symbol>
  <symbol viewBox="0 0 16 16" id="faq">
    <path fill-rule="evenodd" clip-rule="evenodd" d="M13.185 0.666666H2.81491C1.99245 0.666666 1.33331 1.2955 1.33331 2.06367V11.8414C1.33331 12.6096 1.99245 13.2378 2.81494 13.2378H5.77755L7.99998 15.3333L10.2218 13.2378H13.185C13.9997 13.2378 14.6666 12.6096 14.6666 11.8414V2.06367C14.6666 1.2955 13.9997 0.666666 13.185 0.666666ZM8.74078 11.8414H7.25915V10.4444H8.74078V11.8414ZM10.2736 6.42882L9.60732 7.07109C9.07392 7.58075 8.74078 7.99999 8.74078 9.04741H7.25915V8.69847C7.25915 7.9303 7.59229 7.23182 8.12569 6.72215L9.04409 5.84216C9.3176 5.59038 9.48158 5.24206 9.48158 4.85765C9.48158 4.08948 8.814 3.46065 7.99995 3.46065C7.18525 3.46065 6.51832 4.08948 6.51832 4.85765H5.03734C5.03734 3.31461 6.36341 2.06426 7.99995 2.06426C9.63649 2.06426 10.9626 3.31458 10.9626 4.85765C10.9626 5.47183 10.6962 6.03039 10.2736 6.42882Z" />
  </symbol>
  <symbol viewBox="0 0 20 20" id="manager">
    <path fill-rule="evenodd" clip-rule="evenodd" d="M10 0C6.4633 0 3.57513 2.68497 3.34821 6.08285C2.45073 6.21504 1.65681 6.72334 1.07887 7.44913C0.40359 8.29715 0 9.44397 0 10.6977C0 11.9514 0.40359 13.0982 1.07887 13.9462C1.75415 14.7942 2.72361 15.3488 3.80952 15.3488C4.05885 15.3488 4.28569 15.1272 4.28571 14.8837C4.28571 14.8837 4.28619 6.52373 4.28571 6.51163C4.28641 6.49711 4.28641 6.48255 4.28571 6.46802C4.30996 3.38874 6.8413 0.930233 10 0.930233C13.1612 0.930233 15.6941 3.39253 15.7143 6.47529C15.7144 6.48768 15.7143 6.49922 15.7143 6.51163C15.7133 6.52857 15.7143 14.6512 15.7143 14.6512C15.7143 15.7509 15.4737 16.6213 14.9702 17.202C14.4667 17.7828 13.6793 18.1395 12.381 18.1395H12.2991C12.1037 17.5969 11.5765 17.2093 10.9524 17.2093H9.04762C8.25619 17.2093 7.61905 17.8316 7.61905 18.6047C7.61905 19.3777 8.25619 20 9.04762 20H10.9524C11.5765 20 12.1037 19.6124 12.2991 19.0698H12.381C13.8684 19.0698 14.9872 18.6109 15.692 17.798C16.2683 17.1333 16.5519 16.277 16.6369 15.3125C17.5405 15.1823 18.34 14.6687 18.9211 13.939C19.5964 13.0909 20 11.9514 20 10.6977C20 9.44397 19.5964 8.29715 18.9211 7.44913C18.3432 6.72334 17.5493 6.21504 16.6518 6.08285C16.4249 2.68497 13.5367 0 10 0Z" />
  </symbol>
  <symbol viewBox="0 0 24 24" id="user">
    <path d="M11.9997 12.4399C15.1536 12.4399 17.7197 9.87386 17.7197 6.71996C17.7197 3.56606 15.1536 1 11.9997 1C8.84585 1 6.27979 3.56606 6.27979 6.71996C6.27979 9.87386 8.84585 12.4399 11.9997 12.4399Z"/>
    <path d="M18.8573 12.2024C18.6747 12.0559 18.4085 12.0783 18.2532 12.2543C16.663 14.0499 14.3834 15.08 11.9999 15.08C9.61647 15.08 7.33684 14.0499 5.74625 12.2543C5.59093 12.0787 5.32517 12.0554 5.14213 12.2024C2.51007 14.3042 1 17.4379 1 20.7999V22.5599C1 22.8032 1.19712 22.9999 1.44 22.9999H22.5599C22.8032 22.9999 22.9999 22.8032 22.9999 22.5599V20.7999C22.9999 17.4383 21.4898 14.3047 18.8573 12.2024Z"/>
  </symbol>
  <symbol viewBox="0 0 16 10" id="arow-dropdawn">
    <path fill-rule="evenodd" clip-rule="evenodd" d="M2.60481 0.46625C2.00815 -0.155417 1.04277 -0.155417 0.4469 0.46625C-0.148166 1.09458 -0.149766 2.10958 0.4469 2.73792L6.92064 9.53375C7.51651 10.1554 8.48269 10.1554 9.07936 9.53375L15.5531 2.73792C16.149 2.10958 16.149 1.09458 15.5531 0.46625C14.9564 -0.155417 13.9911 -0.155417 13.3944 0.46625L8.0004 6.13208L2.60481 0.46625Z"/>
  </symbol>
  <symbol viewBox="0 0 16 16" id="setting">
    <path d="M14.7693 6.30768H13.3782C13.2789 5.9932 13.1523 5.68773 12.9988 5.3944L13.9829 4.41004C14.2032 4.18976 14.2032 3.83268 13.9829 3.6124L12.3873 2.01684C12.1758 1.8053 11.8012 1.8053 11.5897 2.01684L10.6053 3.00119C10.312 2.84776 10.0068 2.72084 9.69233 2.62184V1.23076C9.69233 0.919374 9.43961 0.666656 9.12823 0.666656H6.87182C6.56043 0.666656 6.30771 0.919374 6.30771 1.23076V2.62184C5.99294 2.72084 5.68776 2.84748 5.39443 3.00119L4.41035 2.01712C4.19007 1.79684 3.83299 1.79684 3.61271 2.01712L2.01715 3.6124C1.91138 3.71817 1.85187 3.86173 1.85187 4.0115C1.85187 4.16099 1.9111 4.30455 2.01715 4.41032L3.00123 5.3944C2.84751 5.68802 2.72087 5.99348 2.62187 6.30796H1.23079C0.919405 6.30796 0.666687 6.56068 0.666687 6.87207V9.12848C0.666687 9.43986 0.919405 9.69258 1.23079 9.69258H2.62158C2.72087 10.0073 2.84751 10.3125 3.00123 10.6059L2.01687 11.5902C1.9111 11.696 1.85158 11.8396 1.85158 11.989C1.85158 12.1385 1.9111 12.2821 2.01687 12.3879L3.61243 13.9831C3.83271 14.2034 4.19007 14.2034 4.41007 13.9831L5.39443 12.9991C5.68776 13.1525 5.99294 13.2791 6.30743 13.3784V14.7692C6.30743 15.0806 6.56015 15.3333 6.87153 15.3333H9.12794C9.43933 15.3333 9.69205 15.0806 9.69205 14.7692V13.3779C10.0065 13.2786 10.3117 13.1519 10.605 12.9985L11.5897 13.9829C11.8012 14.1944 12.1758 14.1944 12.3873 13.9829L13.9826 12.3873C14.2029 12.167 14.2029 11.8099 13.9826 11.5897L12.9983 10.6053C13.1517 10.312 13.2783 10.0068 13.3776 9.6923H14.7693C15.0806 9.6923 15.3334 9.43958 15.3334 9.1282V6.87178C15.3334 6.5604 15.0806 6.30768 14.7693 6.30768ZM8.00002 11.3846C6.13369 11.3846 4.61541 9.86604 4.61541 7.99999C4.61541 6.13366 6.13369 4.61537 8.00002 4.61537C9.86635 4.61537 11.3846 6.13366 11.3846 7.99999C11.3846 9.86604 9.86607 11.3846 8.00002 11.3846Z" />
    <path d="M8.00022 6.35876C7.09519 6.35876 6.35919 7.09497 6.35919 7.99979C6.35919 8.90461 7.0954 9.64082 8.00022 9.64082C8.90504 9.64082 9.64124 8.90461 9.64124 7.99979C9.64124 7.09497 8.90504 6.35876 8.00022 6.35876Z"/>
  </symbol>
  <symbol viewBox="0 0 16 16" id="exit">
    <path fill-rule="evenodd" clip-rule="evenodd" d="M0.666687 0.666656V7.99999V15.3333L6.30748 12.3651V3.63491L0.666687 0.666656ZM13.0529 6.0739C12.9001 6.08112 12.7672 6.17363 12.7169 6.30784C12.6665 6.44205 12.7088 6.59119 12.8238 6.68501L13.9754 7.65078H8.56379C8.3475 7.65078 8.18774 7.83537 8.18774 7.99999C8.18774 8.16461 8.36665 8.3492 8.56379 8.3492H13.9754L12.8238 9.30951C12.7234 9.39318 12.6789 9.52032 12.7071 9.64281C12.7353 9.7653 12.8319 9.86442 12.9604 9.90263C13.0888 9.94085 13.2295 9.91233 13.3291 9.82787L15.2093 8.25644C15.2883 8.19022 15.3334 8.09605 15.3334 7.99726C15.3334 7.89847 15.2883 7.8043 15.2093 7.73808L13.3291 6.16666C13.2544 6.10226 13.1547 6.06879 13.0529 6.0739Z"/>
  </symbol>
  <symbol viewBox="0 0 20 20" id="search">
    <path fill-rule="evenodd" clip-rule="evenodd" d="M14.2857 12.5714H13.3714L13.0286 12.2286C14.1715 10.9714 14.8572 9.25714 14.8572 7.42857C14.8571 3.31429 11.5429 0 7.42857 0C3.31429 0 0 3.31429 0 7.42857C0 11.5429 3.31429 14.8571 7.42857 14.8571C9.25714 14.8571 10.9714 14.1714 12.2286 13.0286L12.5714 13.3714V14.2857L18.2857 20L20 18.2857L14.2857 12.5714ZM7.42857 12.5714C4.57143 12.5714 2.28571 10.2857 2.28571 7.42857C2.28571 4.57143 4.57143 2.28571 7.42857 2.28571C10.2857 2.28571 12.5714 4.57143 12.5714 7.42857C12.5714 10.2857 10.2857 12.5714 7.42857 12.5714Z"/>
  </symbol>
</svg>
