<svg fill="none" xmlns="http://www.w3.org/2000/svg">
  <symbol viewBox="0 0 29 21" height="21px"  id="ru">
    <rect x="0.251309" y="0.698956" width="27.644" height="19.6021" rx="1.75916" fill="white" stroke="#F5F5F5" stroke-width="0.502618"/>
    <mask id="mask0_0_1" style="mask-type:alpha" maskUnits="userSpaceOnUse" x="0" y="0" width="29" height="21">
    <rect x="0.251309" y="0.698956" width="27.644" height="19.6021" rx="1.75916" fill="white" stroke="white" stroke-width="0.502618"/>
    </mask>
    <g mask="url(#mask0_0_1)">
    <path fill-rule="evenodd" clip-rule="evenodd" d="M-6.10352e-05 13.8511H28.1465V7.14954H-6.10352e-05V13.8511Z" fill="#0C47B7"/>
    <path fill-rule="evenodd" clip-rule="evenodd" d="M-6.10352e-05 20.5523H28.1465V13.8507H-6.10352e-05V20.5523Z" fill="#E53B35"/>
    </g>
  </symbol>
  <symbol viewBox="0 0 29 21" id="ua">
    <rect y="0.447647" width="28.1466" height="20.1047" rx="2.01047" fill="white"/>
    <mask id="mask0_0_1" style="mask-type:alpha" maskUnits="userSpaceOnUse" x="0" y="0" width="29" height="21">
    <rect y="0.447647" width="28.1466" height="20.1047" rx="2.01047" fill="white"/>
    </mask>
    <g mask="url(#mask0_0_1)">
    <path fill-rule="evenodd" clip-rule="evenodd" d="M0 11.1702H28.1466V0.447647H0V11.1702Z" fill="#156DD1"/>
    <path fill-rule="evenodd" clip-rule="evenodd" d="M-6.10352e-05 20.5523H28.1465V11.1701H-6.10352e-05V20.5523Z" fill="#FFD948"/>
    </g>
  </symbol>
  <symbol viewBox="0 0 29 21" id="kz">
    <rect y="0.5" width="28" height="20" rx="2" fill="white"/>
    <mask id="mask0_0_1" style="mask-type:alpha" maskUnits="userSpaceOnUse" x="0" y="0" width="28" height="21">
    <rect y="0.5" width="28" height="20" rx="2" fill="white"/>
    </mask>
    <g mask="url(#mask0_0_1)">
    <rect y="0.5" width="29" height="20" fill="#4686E4"/>
    <path fill-rule="evenodd" clip-rule="evenodd" d="M14 14.5C16.2091 14.5 18 12.7091 18 10.5C18 8.29086 16.2091 6.5 14 6.5C11.7909 6.5 10 8.29086 10 10.5C10 12.7091 11.7909 14.5 14 14.5Z" fill="#FFCD4B"/>
    <path fill-rule="evenodd" clip-rule="evenodd" d="M12.3682 17.6495L14 15.2136L15.6318 17.6495L16.0451 14.7468L18.5722 16.2334L17.6852 13.4389L20.6071 13.6818L18.5954 11.5489L21.3333 10.5L18.5954 9.45112L20.6071 7.31818L17.6852 7.56111L18.5722 4.76657L16.0451 6.25318L15.6318 3.35052L14 5.78638L12.3682 3.35052L11.9548 6.25318L9.42773 4.76657L10.3147 7.56111L7.39288 7.31818L9.40456 9.45112L6.66666 10.5L9.40456 11.5489L7.39288 13.6818L10.3147 13.4389L9.42773 16.2334L11.9548 14.7468L12.3682 17.6495ZM18.6667 10.5001C18.6667 13.0774 16.5774 15.1668 14.0001 15.1668C11.4227 15.1668 9.3334 13.0774 9.3334 10.5001C9.3334 7.92277 11.4227 5.83344 14.0001 5.83344C16.5774 5.83344 18.6667 7.92277 18.6667 10.5001Z" fill="#FFCD4B"/>
    <path fill-rule="evenodd" clip-rule="evenodd" d="M1.33334 2.16666C1.33334 1.98257 1.48258 1.83333 1.66668 1.83333H2.33334C2.51744 1.83333 2.66668 1.98257 2.66668 2.16666V2.83333C2.66668 3.01742 2.51744 3.16666 2.33334 3.16666H1.66668C1.48258 3.16666 1.33334 3.01742 1.33334 2.83333V2.16666ZM1.33334 4.83333C1.33334 4.64923 1.48258 4.49999 1.66668 4.49999H2.33334C2.51744 4.49999 2.66668 4.64923 2.66668 4.83333V5.49999C2.66668 5.68409 2.51744 5.83333 2.33334 5.83333H1.66668C1.48258 5.83333 1.33334 5.68409 1.33334 5.49999V4.83333ZM1.66668 7.16666C1.48258 7.16666 1.33334 7.3159 1.33334 7.5V8.16666C1.33334 8.35076 1.48258 8.5 1.66668 8.5H2.33334C2.51744 8.5 2.66668 8.35076 2.66668 8.16666V7.5C2.66668 7.3159 2.51744 7.16666 2.33334 7.16666H1.66668ZM1.33334 10.1667C1.33334 9.98257 1.48258 9.83333 1.66668 9.83333H2.33334C2.51744 9.83333 2.66668 9.98257 2.66668 10.1667V10.8333C2.66668 11.0174 2.51744 11.1667 2.33334 11.1667H1.66668C1.48258 11.1667 1.33334 11.0174 1.33334 10.8333V10.1667ZM1.66668 12.5C1.48258 12.5 1.33334 12.6492 1.33334 12.8333V13.5C1.33334 13.6841 1.48258 13.8333 1.66668 13.8333H2.33334C2.51744 13.8333 2.66668 13.6841 2.66668 13.5V12.8333C2.66668 12.6492 2.51744 12.5 2.33334 12.5H1.66668ZM1.33334 15.5C1.33334 15.3159 1.48258 15.1667 1.66668 15.1667H2.33334C2.51744 15.1667 2.66668 15.3159 2.66668 15.5V16.1667C2.66668 16.3508 2.51744 16.5 2.33334 16.5H1.66668C1.48258 16.5 1.33334 16.3508 1.33334 16.1667V15.5ZM1.66668 17.8333C1.48258 17.8333 1.33334 17.9826 1.33334 18.1667V18.8333C1.33334 19.0174 1.48258 19.1667 1.66668 19.1667H2.33334C2.51744 19.1667 2.66668 19.0174 2.66668 18.8333V18.1667C2.66668 17.9826 2.51744 17.8333 2.33334 17.8333H1.66668ZM2.66668 16.8333C2.66668 16.6492 2.81592 16.5 3.00001 16.5H3.66668C3.85077 16.5 4.00001 16.6492 4.00001 16.8333V17.5C4.00001 17.6841 3.85077 17.8333 3.66668 17.8333H3.00001C2.81592 17.8333 2.66668 17.6841 2.66668 17.5V16.8333ZM3.00001 13.8333C2.81592 13.8333 2.66668 13.9826 2.66668 14.1667V14.8333C2.66668 15.0174 2.81592 15.1667 3.00001 15.1667H3.66668C3.85077 15.1667 4.00001 15.0174 4.00001 14.8333V14.1667C4.00001 13.9826 3.85077 13.8333 3.66668 13.8333H3.00001ZM2.66668 11.5C2.66668 11.3159 2.81592 11.1667 3.00001 11.1667H3.66668C3.85077 11.1667 4.00001 11.3159 4.00001 11.5V12.1667C4.00001 12.3508 3.85077 12.5 3.66668 12.5H3.00001C2.81592 12.5 2.66668 12.3508 2.66668 12.1667V11.5ZM3.00001 8.49999C2.81592 8.49999 2.66668 8.64923 2.66668 8.83333V9.49999C2.66668 9.68409 2.81592 9.83333 3.00001 9.83333H3.66668C3.85077 9.83333 4.00001 9.68409 4.00001 9.49999V8.83333C4.00001 8.64923 3.85077 8.49999 3.66668 8.49999H3.00001ZM2.66668 6.16666C2.66668 5.98257 2.81592 5.83333 3.00001 5.83333H3.66668C3.85077 5.83333 4.00001 5.98257 4.00001 6.16666V6.83333C4.00001 7.01742 3.85077 7.16666 3.66668 7.16666H3.00001C2.81592 7.16666 2.66668 7.01742 2.66668 6.83333V6.16666ZM3.00001 3.16666C2.81592 3.16666 2.66668 3.3159 2.66668 3.5V4.16666C2.66668 4.35076 2.81592 4.49999 3.00001 4.49999H3.66668C3.85077 4.49999 4.00001 4.35076 4.00001 4.16666V3.49999C4.00001 3.3159 3.85077 3.16666 3.66668 3.16666H3.00001Z" fill="#FFCD4B"/>
    </g>
  </symbol>
</svg>