<svg fill="none" xmlns="http://www.w3.org/2000/svg">
  <symbol viewBox="0 0 16 16"  id="attention">
    <path fill-rule="evenodd" clip-rule="evenodd" d="M8 15.8334C12.0578 15.8334 15.3333 12.5578 15.3333 8.50002C15.3333 4.44224 12.0578 1.16669 8 1.16669C3.94222 1.16669 0.666664 4.44224 0.666664 8.50002C0.666664 12.5578 3.94222 15.8334 8 15.8334ZM7.51111 3.70891C7.90222 3.70891 8.19555 4.00224 8.19555 4.39335C8.19555 4.78446 7.90222 5.0778 7.51111 5.0778C7.12 5.0778 6.82666 4.78446 6.82666 4.39335C6.82666 4.05113 7.12 3.70891 7.51111 3.70891ZM6.82666 6.44669C6.63111 6.44669 6.43555 6.25113 6.43555 6.05558C6.43555 5.86002 6.63111 5.66446 6.82666 5.66446H8C8.19555 5.66446 8.39111 5.86002 8.39111 6.05558V11.8734H9.17333C9.36889 11.8734 9.56444 12.0689 9.56444 12.2645C9.56444 12.46 9.36889 12.6556 9.17333 12.6556H6.82666C6.63111 12.6556 6.43555 12.46 6.43555 12.2645C6.43555 12.0689 6.63111 11.8734 6.82666 11.8734H7.60889V6.44669H6.82666Z" />
  </symbol>
  <symbol viewBox="0 0 16 16"  id="quetion">
    <rect width="16" height="16" rx="8"/>
    <path d="M7.57273 9.35943H8.42727C8.42727 7.82311 10 8.07451 10 6.3706C10 5.39294 9.29091 4.66669 8 4.66669C6.79091 4.66669 6.04545 5.43019 6 6.55682H6.89091C6.93636 5.87712 7.3 5.50468 8.04545 5.50468C8.73636 5.50468 9.10909 5.88643 9.10909 6.41715C9.10909 7.66483 7.57273 7.3855 7.57273 9.35943ZM8 11.3334C8.37273 11.3334 8.63636 11.0447 8.63636 10.6816C8.63636 10.3185 8.37273 10.0298 8 10.0298C7.62727 10.0298 7.36364 10.3185 7.36364 10.6816C7.36364 11.0447 7.62727 11.3334 8 11.3334Z" fill="white"/>
  </symbol>
</svg>