<svg fill="none" xmlns="http://www.w3.org/2000/svg">
  <symbol viewBox="0 0 14 16" id="play">
    <path d="M13.5 7.13397C14.1667 7.51887 14.1667 8.48112 13.5 8.86602L2.25 15.3612C1.58333 15.7461 0.749999 15.265 0.749999 14.4952L0.75 1.50481C0.75 0.73501 1.58333 0.253883 2.25 0.638783L13.5 7.13397Z"/>
  </symbol>
  <symbol viewBox="0 0 11 14" id="stop">
    <rect width="3.66667" height="14" rx="1" />
    <rect x="7.33333" width="3.66667" height="14" rx="1" />
  </symbol>
  <symbol viewBox="0 0 20 21" id="custom">
    <path fill-rule="evenodd" clip-rule="evenodd" d="M0 16.2778V20.5H4.22222L16.4444 8.16669L12.2222 3.94448L0 16.2778ZM19.6667 4.94448C20.1111 4.50003 20.1111 3.83337 19.6667 3.38893L17.1111 0.833333C16.6667 0.388889 16 0.388889 15.5556 0.833333L13.5556 2.83333L17.7778 7.05554L19.6667 4.94448Z" />
  </symbol>
  <symbol viewBox="0 0 16 23" id="del">
    <path fill-rule="evenodd" clip-rule="evenodd" d="M1.14286 20.0556C1.14286 21.4 2.17143 22.5 3.42857 22.5H12.5714C13.8286 22.5 14.8571 21.4 14.8571 20.0556V5.38889H1.14286V20.0556ZM16 1.72222H12L10.8571 0.5H5.14286L4 1.72222H0V4.16667H16V1.72222Z" />
  </symbol>
  <symbol viewBox="0 0 22 23" id="selective">
    <path fill-rule="evenodd" clip-rule="evenodd" d="M-9.53674e-06 20.514V22.5001H16.8235V20.514H-9.53674e-06ZM11.5661 15.5488C11.5661 15.0001 12.0367 14.5557 12.6176 14.5557H14.7205C15.3015 14.5557 15.772 15.0001 15.772 15.5488V19.521H11.5661V15.5488ZM6.3088 11.5766C6.3088 11.0279 6.77933 10.5835 7.36027 10.5835H9.46321C10.0441 10.5835 10.5147 11.0279 10.5147 11.5766V19.521H6.3088V11.5766ZM1.05146 7.60438C1.05146 7.05572 1.52199 6.61133 2.10293 6.61133H4.20586C4.7868 6.61133 5.25733 7.05572 5.25733 7.60438V19.521H1.05146V7.60438Z" />
    <path fill-rule="evenodd" clip-rule="evenodd" d="M21.3125 4.62497H20.3847C20.3362 4.48816 20.2812 4.35513 20.2197 4.22622L20.8749 3.56966C21.1433 3.3012 21.1433 2.86601 20.8749 2.59755L19.9027 1.62543C19.6343 1.35696 19.1991 1.35696 18.9306 1.62543L18.2751 2.28061C18.1448 2.21874 17.875 2.16374 17.875 2.11527V1.18749C17.875 0.807654 17.5673 0.5 17.1875 0.5H15.8121C15.4323 0.5 15.125 0.807654 15.125 1.18749V2.11527C15.125 2.16374 14.8551 2.21874 14.7255 2.28061L14.0693 1.62508C13.8008 1.35662 13.3657 1.35662 13.0972 1.62508L12.1247 2.59755C11.8563 2.86601 11.8563 3.3012 12.1247 3.56966L12.7799 4.22622C12.718 4.35513 12.663 4.48816 12.6142 4.62497H11.6871C11.3073 4.62497 11 4.93262 11 5.31246V6.68745C11 7.06729 11.3073 7.37495 11.6871 7.37495H12.6142C12.6634 7.51176 12.7184 7.64479 12.7799 7.77507L12.1247 8.43025C11.8563 8.69872 11.8563 9.1339 12.1247 9.40237L13.0968 10.3745C13.3653 10.643 13.8005 10.643 14.069 10.3745L14.7245 9.7193C14.8551 9.78118 15.125 9.83755 15.125 9.88602V10.8124C15.125 11.1923 15.4323 11.4999 15.8121 11.4999H17.1875C17.5673 11.4999 17.875 11.1923 17.875 10.8124V9.88602C17.875 9.83755 18.1448 9.78118 18.2751 9.71965L18.9303 10.3748C19.1987 10.6433 19.6339 10.6433 19.9024 10.3748L20.8745 9.40271C21.143 9.13424 21.143 8.69906 20.8745 8.43059L20.2193 7.77541C20.2812 7.64513 20.3362 7.5121 20.3843 7.37529H21.3125C21.6923 7.37529 22 7.06764 22 6.6878V5.31281C22 4.93262 21.6923 4.62497 21.3125 4.62497ZM16.4996 8.74994C14.9809 8.74994 13.7496 7.51863 13.7496 5.99996C13.7496 4.48128 14.9809 3.24998 16.4996 3.24998C18.0187 3.24998 19.25 4.48128 19.25 5.99996C19.25 7.51863 18.0187 8.74994 16.4996 8.74994ZM17.875 5.99996C17.875 6.75998 17.2586 7.37495 16.4996 7.37495C15.7403 7.37495 15.1246 6.75998 15.1246 5.99996C15.1246 5.24131 15.7403 4.62497 16.4996 4.62497C17.2586 4.62497 17.875 5.24131 17.875 5.99996Z" />
  </symbol>
</svg>