<svg fill="none" xmlns="http://www.w3.org/2000/svg">
  <symbol viewBox="0 0 16 12" id="ru">
    <path d="M16 0H0V6H16V0Z" fill="white"/>
    <path d="M16 6H0V12H16V6Z" fill="#D52B1E"/>
    <path d="M16 4H0V8H16V4Z" fill="#0039A6"/>
  </symbol>
  <symbol viewBox="0 0 18 14" id="en">
    <path d="M1.9375 1C1.38522 1 0.9375 1.44772 0.9375 2V12C0.9375 12.5523 1.38522 13 1.9375 13H15.9375C16.4898 13 16.9375 12.5523 16.9375 12V2C16.9375 1.44772 16.4898 1 15.9375 1H1.9375Z" fill="#012169"/>
    <path d="M0.9375 1L16.9375 13L0.9375 1ZM16.9375 1L0.9375 13Z" fill="black"/>
    <path fill-rule="evenodd" clip-rule="evenodd" d="M6.08234 7.80001C6.61567 7.40001 6.61567 6.60001 6.08234 6.20001L1.15669 2.50578C0.812342 2.24752 0.671889 1.79789 0.808003 1.38955L0.856878 1.24292C1.07272 0.595392 1.85951 0.349616 2.40556 0.75915L8.33786 5.20837C8.69342 5.47503 9.18231 5.47503 9.53786 5.20837L15.4702 0.75915C16.0162 0.349617 16.803 0.595392 17.0188 1.24292L17.0677 1.38955C17.2038 1.79789 17.0634 2.24752 16.719 2.50578L11.7934 6.20001C11.2601 6.60001 11.2601 7.40001 11.7934 7.80001L16.719 11.4942C17.0634 11.7525 17.2038 12.2021 17.0677 12.6105L17.0188 12.7571C16.803 13.4046 16.0162 13.6504 15.4702 13.2409L9.53786 8.79165C9.18231 8.52498 8.69342 8.52498 8.33786 8.79165L2.40556 13.2409C1.85951 13.6504 1.07272 13.4046 0.856878 12.7571L0.808003 12.6105C0.671888 12.2021 0.812342 11.7525 1.15669 11.4942L6.08234 7.80001Z" fill="white"/>
    <path d="M0.9375 1L16.9375 13L0.9375 1ZM16.9375 1L0.9375 13Z" fill="black"/>
    <path fill-rule="evenodd" clip-rule="evenodd" d="M6.6785 7.80003C7.21183 7.40003 7.21183 6.60003 6.6785 6.20003L1.11181 2.02501C0.865413 1.84021 0.764913 1.51849 0.862308 1.2263V1.2263C1.01675 0.762965 1.57974 0.587103 1.97046 0.880143L8.33773 5.6556C8.69329 5.92227 9.18218 5.92227 9.53773 5.6556L15.905 0.880142C16.2957 0.587102 16.8587 0.762965 17.0132 1.2263V1.2263C17.1106 1.51849 17.0101 1.84021 16.7637 2.02501L11.197 6.20003C10.6636 6.60003 10.6636 7.40003 11.197 7.80003L16.7637 11.975C17.0101 12.1598 17.1106 12.4816 17.0132 12.7738V12.7738C16.8587 13.2371 16.2957 13.4129 15.905 13.1199L9.53773 8.34445C9.18218 8.07779 8.69329 8.07779 8.33773 8.34445L1.97046 13.1199C1.57974 13.413 1.01675 13.2371 0.862308 12.7738V12.7738C0.764913 12.4816 0.865413 12.1598 1.11181 11.975L6.6785 7.80003Z" fill="#C8102E"/>
    <path d="M8.9375 1V13V1ZM0.9375 7H16.9375Z" fill="black"/>
    <path fill-rule="evenodd" clip-rule="evenodd" d="M11.2708 9C10.7185 9 10.2708 9.44772 10.2708 10V12C10.2708 12.5523 9.82312 13 9.27083 13H8.60417C8.05188 13 7.60417 12.5523 7.60417 12V10C7.60417 9.44772 7.15645 9 6.60417 9H1.9375C1.38522 9 0.9375 8.55228 0.9375 8V6C0.9375 5.44772 1.38521 5 1.9375 5H6.60417C7.15645 5 7.60417 4.55228 7.60417 4V2C7.60417 1.44772 8.05188 1 8.60417 1H9.27083C9.82312 1 10.2708 1.44772 10.2708 2V4C10.2708 4.55228 10.7185 5 11.2708 5H15.9375C16.4898 5 16.9375 5.44772 16.9375 6V8C16.9375 8.55228 16.4898 9 15.9375 9H11.2708Z" fill="white"/>
    <path d="M8.9375 1V13V1ZM0.9375 7H16.9375Z" fill="black"/>
    <path fill-rule="evenodd" clip-rule="evenodd" d="M10.7375 8.2C10.1852 8.2 9.7375 8.64771 9.7375 9.2V12.2C9.7375 12.6418 9.37933 13 8.9375 13V13C8.49567 13 8.1375 12.6418 8.1375 12.2V9.2C8.1375 8.64772 7.68978 8.2 7.1375 8.2H1.9375C1.38522 8.2 0.9375 7.75229 0.9375 7.2V6.8C0.9375 6.24772 1.38522 5.8 1.9375 5.8H7.1375C7.68979 5.8 8.1375 5.35229 8.1375 4.8V1.8C8.1375 1.35817 8.49567 1 8.9375 1V1C9.37933 1 9.7375 1.35817 9.7375 1.8V4.8C9.7375 5.35228 10.1852 5.8 10.7375 5.8H15.9375C16.4898 5.8 16.9375 6.24771 16.9375 6.8V7.2C16.9375 7.75228 16.4898 8.2 15.9375 8.2H10.7375Z" fill="#C8102E"/>
  </symbol>
  <symbol viewBox="0 0 16 12" id="id">
    <rect x="0.25" y="0.535721" width="15.5" height="10.9286" rx="1.75" fill="white" stroke="#F5F5F5" stroke-width="0.5"/>
    <mask id="mask0_154_7295" style="mask-type:alpha" maskUnits="userSpaceOnUse" x="0" y="0" width="16" height="12">
    <rect x="0.25" y="0.535721" width="15.5" height="10.9286" rx="1.75" fill="white" stroke="white" stroke-width="0.5"/>
    </mask>
    <g mask="url(#mask0_154_7295)">
    <path fill-rule="evenodd" clip-rule="evenodd" d="M0 11.7143H16V5.61905H0V11.7143Z" fill="#EB2A50"/>
    </g>
  </symbol>
</svg>