<svg fill="none" xmlns="http://www.w3.org/2000/svg">
  <symbol viewBox="0 0 24 24" id="telegram">
    <path d="M12 23C18.0751 23 23 18.0751 23 12C23 5.92487 18.0751 1 12 1C5.92487 1 1 5.92487 1 12C1 18.0751 5.92487 23 12 23Z" fill="#596982"/>
    <path d="M10.9309 13.6023L15.902 17.3555L18.4114 6.64383L5.58691 11.6884L9.48925 12.9809L16.6111 8.20379L10.9309 13.6023Z" fill="white"/>
    <path d="M9.48932 12.9813L10.5581 16.8272L10.9309 13.6026L16.6112 8.20413L9.48932 12.9813Z" fill="#D2D2D7"/>
    <path d="M12.547 14.8229L10.5585 16.8277L10.9313 13.6031L12.547 14.8229Z" fill="#B9B9BE"/>
  </symbol>
  <symbol viewBox="0 0 24 24" id="vk">
    <path d="M23.8727 18.4498C23.8437 18.3766 23.8166 18.3159 23.7914 18.2672C23.375 17.3909 22.5793 16.3154 21.4047 15.0402L21.3799 15.011L21.3675 14.9966L21.3549 14.982H21.3423C20.8092 14.3882 20.4716 13.9889 20.3303 13.7845C20.0716 13.3951 20.0137 13.001 20.155 12.6016C20.2549 12.2999 20.6301 11.6627 21.2797 10.6891C21.6213 10.1732 21.892 9.75964 22.0918 9.44809C23.5331 7.20916 24.1579 5.77845 23.9662 5.1554L23.8918 5.0098C23.8418 4.92215 23.7127 4.84196 23.5046 4.76883C23.2961 4.69585 23.0296 4.68378 22.7047 4.73242L19.106 4.76146C19.0477 4.73733 18.9644 4.73958 18.856 4.76883C18.7477 4.79808 18.6935 4.81276 18.6935 4.81276L18.6308 4.84932L18.5811 4.89325C18.5395 4.9223 18.4936 4.97339 18.4436 5.04642C18.3938 5.11919 18.3522 5.2046 18.319 5.30192C17.9272 6.47974 17.4817 7.57481 16.9817 8.58709C16.6735 9.1907 16.3904 9.71382 16.1319 10.1567C15.8737 10.5995 15.6571 10.9257 15.4823 11.1349C15.3072 11.3442 15.1492 11.5119 15.0073 11.6385C14.8657 11.7653 14.7575 11.8188 14.6826 11.7992C14.6076 11.7796 14.5369 11.7602 14.47 11.7408C14.3534 11.6531 14.2597 11.5339 14.189 11.383C14.118 11.2322 14.0702 11.0423 14.0452 10.8135C14.0203 10.5846 14.0056 10.3877 14.0014 10.2222C13.9975 10.0569 13.9993 9.823 14.0078 9.52127C14.0164 9.21939 14.0203 9.01513 14.0203 8.90805C14.0203 8.5381 14.0265 8.13659 14.0389 7.70343C14.0515 7.27027 14.0617 6.92706 14.0702 6.67422C14.0787 6.42113 14.0827 6.15336 14.0827 5.87106C14.0827 5.58877 14.068 5.36738 14.0389 5.20669C14.0102 5.04621 13.9661 4.89044 13.908 4.73942C13.8496 4.58856 13.7641 4.47186 13.6519 4.38901C13.5394 4.30626 13.3996 4.2406 13.2333 4.19181C12.7917 4.07506 12.2294 4.0119 11.5462 4.00208C9.99681 3.98264 9.00124 4.09955 8.55972 4.35265C8.38478 4.45958 8.22648 4.60569 8.08494 4.79051C7.93495 5.00474 7.91402 5.12165 8.0223 5.14088C8.52221 5.22838 8.87611 5.4377 9.0844 5.76863L9.15946 5.94399C9.21784 6.07051 9.27614 6.29451 9.33448 6.61567C9.39273 6.93683 9.43033 7.29211 9.44687 7.68129C9.48845 8.39199 9.48845 9.00036 9.44687 9.50644C9.40516 10.0127 9.36577 10.4069 9.32818 10.6892C9.29058 10.9715 9.23439 11.2002 9.15946 11.3754C9.0844 11.5506 9.03446 11.6577 9.00942 11.6965C8.98443 11.7354 8.9636 11.7599 8.94706 11.7695C8.83878 11.818 8.72616 11.8427 8.60961 11.8427C8.49289 11.8427 8.35134 11.7745 8.18477 11.6381C8.01823 11.5018 7.8454 11.3145 7.66626 11.076C7.48712 10.8374 7.28509 10.504 7.06009 10.0758C6.83526 9.64754 6.60198 9.1414 6.36039 8.55738L6.1605 8.13383C6.03555 7.86135 5.86486 7.4646 5.64825 6.94394C5.43152 6.42307 5.23995 5.91924 5.07342 5.43253C5.00685 5.22812 4.90684 5.0725 4.77357 4.96541L4.71103 4.92148C4.66945 4.88262 4.60271 4.84135 4.51115 4.79736C4.41945 4.75343 4.32378 4.72193 4.22373 4.70255L0.799884 4.7316C0.450012 4.7316 0.21262 4.82421 0.0876214 5.00919L0.0375958 5.09669C0.0126049 5.14543 0 5.22326 0 5.3304C0 5.43749 0.0249909 5.56892 0.0750165 5.72454C0.574835 7.09716 1.11838 8.42093 1.70564 9.69607C2.29291 10.9712 2.80323 11.9984 3.2363 12.7766C3.66946 13.5554 4.11098 14.2905 4.56086 14.9814C5.01075 15.6726 5.30854 16.1155 5.45424 16.3101C5.60011 16.505 5.71469 16.6508 5.79798 16.7481L6.11043 17.0985C6.31036 17.3321 6.60395 17.612 6.99133 17.938C7.3788 18.2642 7.80776 18.5854 8.27843 18.902C8.74918 19.2181 9.29684 19.476 9.9217 19.6755C10.5465 19.8752 11.1546 19.9554 11.7461 19.9167H13.1831C13.4746 19.8873 13.6954 19.7802 13.8455 19.5954L13.8952 19.5222C13.9286 19.4641 13.9599 19.3739 13.9888 19.2524C14.018 19.1307 14.0326 18.9967 14.0326 18.8509C14.024 18.4324 14.0513 18.0553 14.1136 17.7195C14.1759 17.3838 14.2469 17.1307 14.3263 16.9602C14.4056 16.7899 14.4952 16.6462 14.5948 16.5297C14.6947 16.413 14.7659 16.3423 14.8076 16.3179C14.8491 16.2934 14.8822 16.2768 14.9072 16.2668C15.1072 16.189 15.3425 16.2644 15.6135 16.4933C15.8842 16.7221 16.1382 17.0045 16.3758 17.3402C16.6132 17.6762 16.8985 18.0532 17.2317 18.4716C17.565 18.8903 17.8565 19.2015 18.1063 19.4062L18.3562 19.5814C18.523 19.6983 18.7396 19.8054 19.0062 19.9027C19.2724 20 19.5056 20.0243 19.7058 19.9757L22.9046 19.9174C23.221 19.9174 23.4672 19.8562 23.6418 19.7347C23.8168 19.6131 23.9207 19.479 23.9543 19.3332C23.9877 19.1873 23.9895 19.0217 23.9606 18.8365C23.931 18.6519 23.9018 18.5227 23.8727 18.4498Z" fill="#596982"/>
  </symbol>
  <symbol viewBox="0 0 24 24" id="mail">
    <path d="M3.1114 8.62503C3.3897 8.82499 4.2286 9.41886 5.62813 10.4063C7.02772 11.3938 8.09989 12.1542 8.8447 12.6874C8.92653 12.7458 9.10038 12.8729 9.36634 13.0687C9.63234 13.2647 9.85336 13.4231 10.0292 13.5439C10.2052 13.6646 10.418 13.8001 10.6678 13.9501C10.9174 14.0999 11.1528 14.2126 11.3737 14.2872C11.5948 14.3624 11.7994 14.3997 11.9876 14.3997H11.9999H12.0123C12.2005 14.3997 12.4052 14.3624 12.6262 14.2872C12.8471 14.2126 13.0827 14.0997 13.3321 13.9501C13.5817 13.7999 13.7944 13.6646 13.9704 13.5439C14.1465 13.4231 14.3673 13.2647 14.6334 13.0687C14.8993 12.8727 15.0734 12.7458 15.1552 12.6874C15.9081 12.1542 17.8234 10.7999 20.9007 8.62477C21.4982 8.19994 21.9973 7.68733 22.3983 7.08728C22.7996 6.4875 23 5.85829 23 5.20002C23 4.64993 22.8055 4.17904 22.4167 3.7874C22.0279 3.39567 21.5675 3.19992 21.0356 3.19992H2.96404C2.33386 3.19992 1.84891 3.41656 1.50924 3.84984C1.16963 4.2832 0.999817 4.82488 0.999817 5.47484C0.999817 5.99984 1.22497 6.56876 1.67505 7.18124C2.1251 7.79377 2.60404 8.27507 3.1114 8.62503Z" fill="#596982"/>
    <path d="M21.7721 9.96224C19.0879 11.8121 17.0497 13.2498 15.6585 14.2749C15.192 14.6248 14.8135 14.8979 14.5229 15.0936C14.2322 15.2895 13.8457 15.4895 13.3627 15.6935C12.8799 15.8979 12.4299 15.9998 12.0125 15.9998H11.9999H11.9876C11.5702 15.9998 11.12 15.8979 10.6372 15.6935C10.1544 15.4895 9.76757 15.2895 9.47702 15.0936C9.18655 14.8979 8.80797 14.6248 8.3415 14.2749C7.23652 13.45 5.20268 12.0122 2.23991 9.96224C1.77327 9.64577 1.35995 9.28303 0.999817 8.87476V18.7997C0.999817 19.3501 1.19207 19.8207 1.5768 20.2124C1.96144 20.6042 2.42395 20.8 2.96416 20.8H21.0358C21.5759 20.8 22.0384 20.6042 22.423 20.2124C22.8079 19.8206 23 19.3501 23 18.7997V8.87476C22.648 9.27458 22.2389 9.63732 21.7721 9.96224Z" fill="#596982"/>
  </symbol>
</svg>