<svg width="496" height="298" viewBox="0 0 496 298" fill="none" xmlns="http://www.w3.org/2000/svg">
<rect width="496" height="298" rx="8" fill="url(#paint0_linear_147_5822)"/>
<path d="M51 29V258H468" stroke="#C2C6CC"/>
<path d="M29.2169 275.956L31.7849 273.484C32.9249 272.392 33.1649 271.66 33.1649 270.844C33.1649 269.404 32.0369 268.504 30.2849 268.504C28.9769 268.504 27.8609 268.972 27.2129 269.776L28.0289 270.484C28.5449 269.86 29.2769 269.572 30.1769 269.572C31.3529 269.572 31.9649 270.1 31.9649 270.964C31.9649 271.492 31.7969 272.02 30.9089 272.884L27.4889 276.184V277H33.5249V275.956H29.2169ZM36.1075 275.956L38.6755 273.484C39.8155 272.392 40.0555 271.66 40.0555 270.844C40.0555 269.404 38.9275 268.504 37.1755 268.504C35.8675 268.504 34.7515 268.972 34.1035 269.776L34.9195 270.484C35.4355 269.86 36.1675 269.572 37.0675 269.572C38.2435 269.572 38.8555 270.1 38.8555 270.964C38.8555 271.492 38.6875 272.02 37.7995 272.884L34.3795 276.184V277H40.4155V275.956H36.1075ZM42.3114 277.072C42.7434 277.072 43.1034 276.724 43.1034 276.244C43.1034 275.764 42.7434 275.428 42.3114 275.428C41.8674 275.428 41.4954 275.764 41.4954 276.244C41.4954 276.724 41.8674 277.072 42.3114 277.072ZM47.5295 277.096C49.4855 277.096 50.9495 275.536 50.9495 272.8C50.9495 270.064 49.4855 268.504 47.5295 268.504C45.5615 268.504 44.0975 270.064 44.0975 272.8C44.0975 275.536 45.5615 277.096 47.5295 277.096ZM47.5295 276.028C46.2095 276.028 45.2975 274.948 45.2975 272.8C45.2975 270.652 46.2095 269.572 47.5295 269.572C48.8375 269.572 49.7495 270.652 49.7495 272.8C49.7495 274.948 48.8375 276.028 47.5295 276.028ZM59.4094 273.904H57.8134V272.08H56.6854V273.904H53.4574L57.5734 268.6H56.2774L51.9814 274.096V274.936H56.6494V277H57.8134V274.936H59.4094V273.904ZM61.1551 277.072C61.5871 277.072 61.9471 276.724 61.9471 276.244C61.9471 275.764 61.5871 275.428 61.1551 275.428C60.7111 275.428 60.3391 275.764 60.3391 276.244C60.3391 276.724 60.7111 277.072 61.1551 277.072ZM64.795 275.956L67.363 273.484C68.503 272.392 68.743 271.66 68.743 270.844C68.743 269.404 67.615 268.504 65.863 268.504C64.555 268.504 63.439 268.972 62.791 269.776L63.607 270.484C64.123 269.86 64.855 269.572 65.755 269.572C66.931 269.572 67.543 270.1 67.543 270.964C67.543 271.492 67.375 272.02 66.487 272.884L63.067 276.184V277H69.103V275.956H64.795ZM69.6097 268.6V269.644H71.5057V277H72.6937V268.6H69.6097Z" fill="#333333"/>
<path d="M27.096 218.6V219.644H28.992V227H30.18V218.6H27.096ZM37.3934 227H38.8094L35.8694 223.268L38.5454 220.64H37.1534L33.6854 223.808V218.096H32.5334V227H33.6854V225.26L35.0054 224.036L37.3934 227Z" fill="#333333"/>
<path d="M29.172 181.956L31.74 179.484C32.88 178.392 33.12 177.66 33.12 176.844C33.12 175.404 31.992 174.504 30.24 174.504C28.932 174.504 27.816 174.972 27.168 175.776L27.984 176.484C28.5 175.86 29.232 175.572 30.132 175.572C31.308 175.572 31.92 176.1 31.92 176.964C31.92 177.492 31.752 178.02 30.864 178.884L27.444 182.184V183H33.48V181.956H29.172ZM39.8426 183H41.2586L38.3186 179.268L40.9946 176.64H39.6026L36.1346 179.808V174.096H34.9826V183H36.1346V181.26L37.4546 180.036L39.8426 183Z" fill="#333333"/>
<path d="M30.792 136.128L32.988 133.416V132.6H27.444V133.644H31.488L29.376 136.236V137.076H30.048C31.488 137.076 32.124 137.652 32.124 138.54C32.124 139.452 31.404 140.028 30.144 140.028C29.112 140.028 28.176 139.656 27.612 139.128L27.06 140.076C27.768 140.712 28.944 141.096 30.144 141.096C32.28 141.096 33.324 139.944 33.324 138.528C33.324 137.232 32.472 136.284 30.792 136.128ZM39.8192 141H41.2352L38.2952 137.268L40.9712 134.64H39.5792L36.1112 137.808V132.096H34.9592V141H36.1112V139.26L37.4312 138.036L39.8192 141Z" fill="#333333"/>
<path d="M34.884 101.904H33.288V100.08H32.16V101.904H28.932L33.048 96.6H31.752L27.456 102.096V102.936H32.124V105H33.288V102.936H34.884V101.904ZM40.9793 105H42.3953L39.4553 101.268L42.1313 98.64H40.7393L37.2713 101.808V96.096H36.1193V105H37.2713V103.26L38.5913 102.036L40.9793 105Z" fill="#333333"/>
<path d="M29.976 55.948H29.04L29.268 53.644H33V52.6H28.26L27.816 56.992H29.724C31.668 56.992 32.268 57.58 32.268 58.528C32.268 59.44 31.548 60.028 30.276 60.028C29.256 60.028 28.32 59.656 27.756 59.128L27.204 60.076C27.924 60.712 29.1 61.096 30.288 61.096C32.436 61.096 33.468 59.932 33.468 58.48C33.468 56.992 32.484 55.948 29.976 55.948ZM39.8426 61H41.2586L38.3186 57.268L40.9946 54.64H39.6026L36.1346 57.808V52.096H34.9826V61H36.1346V59.26L37.4546 58.036L39.8426 61Z" fill="#333333"/>
<path d="M431.402 275.956L433.97 273.484C435.11 272.392 435.35 271.66 435.35 270.844C435.35 269.404 434.222 268.504 432.47 268.504C431.162 268.504 430.046 268.972 429.398 269.776L430.214 270.484C430.73 269.86 431.462 269.572 432.362 269.572C433.538 269.572 434.15 270.1 434.15 270.964C434.15 271.492 433.982 272.02 433.094 272.884L429.674 276.184V277H435.71V275.956H431.402ZM438.293 275.956L440.861 273.484C442.001 272.392 442.241 271.66 442.241 270.844C442.241 269.404 441.113 268.504 439.361 268.504C438.053 268.504 436.937 268.972 436.289 269.776L437.105 270.484C437.621 269.86 438.353 269.572 439.253 269.572C440.429 269.572 441.041 270.1 441.041 270.964C441.041 271.492 440.873 272.02 439.985 272.884L436.565 276.184V277H442.601V275.956H438.293ZM444.497 277.072C444.929 277.072 445.289 276.724 445.289 276.244C445.289 275.764 444.929 275.428 444.497 275.428C444.053 275.428 443.681 275.764 443.681 276.244C443.681 276.724 444.053 277.072 444.497 277.072ZM449.715 277.096C451.671 277.096 453.135 275.536 453.135 272.8C453.135 270.064 451.671 268.504 449.715 268.504C447.747 268.504 446.283 270.064 446.283 272.8C446.283 275.536 447.747 277.096 449.715 277.096ZM449.715 276.028C448.395 276.028 447.483 274.948 447.483 272.8C447.483 270.652 448.395 269.572 449.715 269.572C451.023 269.572 451.935 270.652 451.935 272.8C451.935 274.948 451.023 276.028 449.715 276.028ZM456.687 271.948H455.751L455.979 269.644H459.711V268.6H454.971L454.527 272.992H456.435C458.379 272.992 458.979 273.58 458.979 274.528C458.979 275.44 458.259 276.028 456.987 276.028C455.967 276.028 455.031 275.656 454.467 275.128L453.915 276.076C454.635 276.712 455.811 277.096 456.999 277.096C459.147 277.096 460.179 275.932 460.179 274.48C460.179 272.992 459.195 271.948 456.687 271.948ZM461.97 277.072C462.402 277.072 462.762 276.724 462.762 276.244C462.762 275.764 462.402 275.428 461.97 275.428C461.526 275.428 461.154 275.764 461.154 276.244C461.154 276.724 461.526 277.072 461.97 277.072ZM465.61 275.956L468.178 273.484C469.318 272.392 469.558 271.66 469.558 270.844C469.558 269.404 468.43 268.504 466.678 268.504C465.37 268.504 464.254 268.972 463.606 269.776L464.422 270.484C464.938 269.86 465.67 269.572 466.57 269.572C467.746 269.572 468.358 270.1 468.358 270.964C468.358 271.492 468.19 272.02 467.302 272.884L463.882 276.184V277H469.918V275.956H465.61ZM470.424 268.6V269.644H472.32V277H473.508V268.6H470.424Z" fill="#333333"/>
<line x1="51" y1="220.75" x2="468" y2="220.75" stroke="#C2C6CC" stroke-width="0.5"/>
<line x1="52" y1="180.75" x2="469" y2="180.75" stroke="#C2C6CC" stroke-width="0.5"/>
<line x1="51" y1="140.75" x2="468" y2="140.75" stroke="#C2C6CC" stroke-width="0.5"/>
<line x1="51" y1="100.75" x2="468" y2="100.75" stroke="#C2C6CC" stroke-width="0.5"/>
<line x1="51" y1="60.75" x2="468" y2="60.75" stroke="#C2C6CC" stroke-width="0.5"/>
<path d="M116.661 220L52 236.5V259H468V188L455.791 198L378.922 164.5L343.652 184L312.904 137.5L286.226 127L222.017 198L186.296 204.263L148.313 236.5L116.661 220Z" fill="url(#paint1_linear_147_5822)"/>
<path d="M286 116L286 259" stroke="#B2CFFC" stroke-width="0.5"/>
<path d="M51 236L115.415 220.571L146.895 236L185.618 204.147L220.973 198.673L285.336 128L312.532 138.452L343.353 184.24L378.254 164.332L455.408 198.673L468 188.719" stroke="url(#paint2_linear_147_5822)" stroke-width="2"/>
<circle cx="286" cy="128" r="3.5" fill="#4690FF" stroke="white"/>
<rect x="252" y="93" width="71" height="29" rx="4" fill="#8893A5"/>
<path d="M273.124 107.19C273.983 107.33 274.641 107.652 275.098 108.156C275.555 108.651 275.784 109.267 275.784 110.004C275.784 110.573 275.635 111.101 275.336 111.586C275.037 112.062 274.58 112.445 273.964 112.734C273.357 113.023 272.611 113.168 271.724 113.168C271.033 113.168 270.352 113.079 269.68 112.902C269.017 112.715 268.453 112.454 267.986 112.118L268.868 110.382C269.241 110.662 269.671 110.881 270.156 111.04C270.651 111.189 271.155 111.264 271.668 111.264C272.237 111.264 272.685 111.157 273.012 110.942C273.339 110.718 273.502 110.405 273.502 110.004C273.502 109.201 272.891 108.8 271.668 108.8H270.632V107.302L272.648 105.02H268.476V103.2H275.336V104.67L273.124 107.19ZM287.502 107.848C287.987 108.091 288.356 108.408 288.608 108.8C288.869 109.192 289 109.645 289 110.158C289 110.765 288.827 111.297 288.482 111.754C288.137 112.202 287.651 112.552 287.026 112.804C286.401 113.047 285.677 113.168 284.856 113.168C284.035 113.168 283.311 113.047 282.686 112.804C282.07 112.552 281.589 112.202 281.244 111.754C280.908 111.297 280.74 110.765 280.74 110.158C280.74 109.645 280.866 109.192 281.118 108.8C281.379 108.408 281.748 108.091 282.224 107.848C281.86 107.624 281.58 107.344 281.384 107.008C281.188 106.663 281.09 106.271 281.09 105.832C281.09 105.263 281.249 104.768 281.566 104.348C281.883 103.928 282.327 103.606 282.896 103.382C283.465 103.149 284.119 103.032 284.856 103.032C285.603 103.032 286.261 103.149 286.83 103.382C287.409 103.606 287.857 103.928 288.174 104.348C288.491 104.768 288.65 105.263 288.65 105.832C288.65 106.271 288.552 106.663 288.356 107.008C288.16 107.344 287.875 107.624 287.502 107.848ZM284.856 104.698C284.399 104.698 284.03 104.81 283.75 105.034C283.479 105.249 283.344 105.547 283.344 105.93C283.344 106.303 283.479 106.597 283.75 106.812C284.021 107.027 284.389 107.134 284.856 107.134C285.323 107.134 285.696 107.027 285.976 106.812C286.256 106.597 286.396 106.303 286.396 105.93C286.396 105.547 286.256 105.249 285.976 105.034C285.696 104.81 285.323 104.698 284.856 104.698ZM284.856 111.502C285.425 111.502 285.873 111.376 286.2 111.124C286.536 110.863 286.704 110.517 286.704 110.088C286.704 109.659 286.536 109.318 286.2 109.066C285.873 108.814 285.425 108.688 284.856 108.688C284.296 108.688 283.853 108.814 283.526 109.066C283.199 109.318 283.036 109.659 283.036 110.088C283.036 110.527 283.199 110.872 283.526 111.124C283.853 111.376 284.296 111.502 284.856 111.502ZM293.482 103.032C294.854 103.032 295.928 103.452 296.702 104.292C297.477 105.123 297.864 106.322 297.864 107.89C297.864 109.001 297.654 109.953 297.234 110.746C296.824 111.539 296.24 112.141 295.484 112.552C294.728 112.963 293.856 113.168 292.866 113.168C292.344 113.168 291.844 113.112 291.368 113C290.892 112.879 290.486 112.711 290.15 112.496L290.99 110.83C291.466 111.157 292.078 111.32 292.824 111.32C293.655 111.32 294.313 111.077 294.798 110.592C295.284 110.097 295.545 109.388 295.582 108.464C294.994 109.052 294.182 109.346 293.146 109.346C292.521 109.346 291.952 109.22 291.438 108.968C290.925 108.716 290.519 108.361 290.22 107.904C289.922 107.437 289.772 106.901 289.772 106.294C289.772 105.641 289.936 105.067 290.262 104.572C290.589 104.077 291.032 103.699 291.592 103.438C292.162 103.167 292.792 103.032 293.482 103.032ZM293.65 107.652C294.145 107.652 294.546 107.517 294.854 107.246C295.172 106.966 295.33 106.611 295.33 106.182C295.33 105.753 295.176 105.403 294.868 105.132C294.57 104.861 294.154 104.726 293.622 104.726C293.137 104.726 292.74 104.857 292.432 105.118C292.134 105.379 291.984 105.734 291.984 106.182C291.984 106.63 292.134 106.989 292.432 107.26C292.74 107.521 293.146 107.652 293.65 107.652ZM306.192 111.152V113H298.786V111.53L302.566 107.96C302.968 107.577 303.238 107.251 303.378 106.98C303.518 106.7 303.588 106.425 303.588 106.154C303.588 105.762 303.453 105.463 303.182 105.258C302.921 105.043 302.534 104.936 302.02 104.936C301.591 104.936 301.204 105.02 300.858 105.188C300.513 105.347 300.224 105.589 299.99 105.916L298.338 104.852C298.721 104.283 299.248 103.839 299.92 103.522C300.592 103.195 301.362 103.032 302.23 103.032C302.958 103.032 303.593 103.153 304.134 103.396C304.685 103.629 305.11 103.965 305.408 104.404C305.716 104.833 305.87 105.342 305.87 105.93C305.87 106.462 305.758 106.961 305.534 107.428C305.31 107.895 304.876 108.427 304.232 109.024L301.978 111.152H306.192Z" fill="white"/>
<defs>
<linearGradient id="paint0_linear_147_5822" x1="248" y1="9.55958e-06" x2="444.757" y2="367.178" gradientUnits="userSpaceOnUse">
<stop stop-color="#F2F7FF"/>
<stop offset="1" stop-color="#F2EFF6" stop-opacity="0"/>
</linearGradient>
<linearGradient id="paint1_linear_147_5822" x1="241" y1="147.88" x2="243.761" y2="259.402" gradientUnits="userSpaceOnUse">
<stop stop-color="#5297FF"/>
<stop offset="0.919737" stop-color="#DAE9FF" stop-opacity="0"/>
</linearGradient>
<linearGradient id="paint2_linear_147_5822" x1="39.5753" y1="236" x2="513.699" y2="236" gradientUnits="userSpaceOnUse">
<stop stop-color="#9966E0"/>
<stop offset="1" stop-color="#4690FF"/>
</linearGradient>
</defs>
</svg>
