<svg width="132" height="36" viewBox="0 0 132 36" fill="none" xmlns="http://www.w3.org/2000/svg">
<path fill-rule="evenodd" clip-rule="evenodd" d="M29.49 23.6446C28.8401 23.6446 28.2226 23.7691 27.6377 24.0182C27.0527 24.2673 26.5653 24.5787 26.1428 24.9835C25.7204 25.3883 25.3954 25.8553 25.1354 26.4158C24.8754 26.9763 24.7779 27.5368 24.7779 28.1595C24.7779 28.7823 24.9079 29.3739 25.1354 29.9032C25.3954 30.4637 25.7204 30.9308 26.1428 31.3356C26.5653 31.7403 27.0527 32.0517 27.6377 32.3008C28.2226 32.5499 28.8401 32.6745 29.49 32.6745C30.14 32.6745 30.7574 32.5499 31.3424 32.3008C31.9273 32.0517 32.4148 31.7403 32.8372 31.3356C33.2597 30.9308 33.5847 30.4326 33.8446 29.9032C34.1046 29.3739 34.2021 28.7823 34.2021 28.1595C34.2021 27.5368 34.0721 26.9763 33.8446 26.4158C33.5847 25.8865 33.2597 25.3883 32.8372 24.9835C32.4148 24.5787 31.9273 24.2362 31.3424 24.0182C30.7574 23.738 30.14 23.6446 29.49 23.6446ZM34.2021 34.0134V33.7643C33.5197 34.2936 32.8047 34.6673 32.0248 34.9475C31.2449 35.2278 30.3999 35.3523 29.49 35.3523C27.4102 35.3523 25.6554 34.6361 24.1605 33.235C22.6981 31.8338 21.9507 30.1212 21.9507 28.1284C21.9507 26.1356 22.6981 24.4541 24.1605 23.0218C25.6229 21.6206 27.4102 20.9044 29.49 20.9044C31.5373 20.9044 33.3247 21.6206 34.8196 23.0218C36.2819 24.423 37.0294 26.1356 37.0294 28.1284V33.9823C37.0294 34.3559 36.8994 34.6673 36.6069 34.9164C36.3469 35.1655 35.9894 35.3212 35.632 35.3212C35.242 35.3212 34.917 35.1966 34.6246 34.9164C34.3321 34.6984 34.2021 34.387 34.2021 34.0134Z" fill="#12284C"/>
<path fill-rule="evenodd" clip-rule="evenodd" d="M51.1665 28.1595C51.1665 27.5367 51.0365 26.9762 50.809 26.4158C50.549 25.8864 50.224 25.3882 49.8016 24.9834C49.3791 24.5786 48.8917 24.2361 48.3067 24.0182C47.7218 23.7691 47.1368 23.6445 46.4544 23.6445C45.8044 23.6445 45.187 23.7691 44.602 24.0182C44.0171 24.2673 43.5296 24.5786 43.1072 24.9834C42.6847 25.3882 42.3597 25.8553 42.0998 26.4158C41.8398 26.9762 41.7423 27.5367 41.7423 28.1595C41.7423 28.7822 41.8723 29.3738 42.0998 29.9032C42.3597 30.4637 42.6847 30.9307 43.1072 31.3355C43.5296 31.7403 44.0171 32.0517 44.602 32.3008C45.187 32.5499 45.8044 32.6744 46.4544 32.6744C47.1043 32.6744 47.7218 32.5499 48.3067 32.3008C48.8917 32.0517 49.3791 31.7403 49.8016 31.3355C50.224 30.9307 50.549 30.4325 50.809 29.9032C51.0365 29.3427 51.1665 28.7511 51.1665 28.1595ZM46.4544 20.9355C48.2417 20.9355 49.8016 21.4649 51.1665 22.5236V16.1092C51.1665 15.7356 51.2964 15.393 51.5564 15.1439C51.8164 14.8948 52.1414 14.7703 52.5638 14.7703C52.9538 14.7703 53.2788 14.8948 53.5712 15.1439C53.8312 15.393 53.9937 15.7044 53.9937 16.1092V28.1595C53.9937 30.1523 53.2463 31.8649 51.7839 33.2661C50.289 34.6672 48.5342 35.3834 46.4544 35.3834C44.3746 35.3834 42.6197 34.6672 41.1248 33.2661C39.6625 31.8649 38.915 30.1523 38.915 28.1595C38.915 26.1667 39.6625 24.4852 41.1248 23.0529C42.6197 21.6517 44.3746 20.9355 46.4544 20.9355Z" fill="#12284C"/>
<path fill-rule="evenodd" clip-rule="evenodd" d="M58.7364 28.502C57.8915 28.1906 57.3065 27.8792 56.9491 27.5367C56.2666 26.8828 55.9417 26.1044 55.9417 25.2014C55.9417 24.5475 56.1366 23.9559 56.4941 23.4265C56.8516 22.8972 57.339 22.4613 57.924 22.0876C58.5089 21.714 59.1589 21.4337 59.9063 21.2469C60.6212 21.0601 61.3687 20.9355 62.1161 20.9355C64.3584 20.9355 66.2757 21.8074 67.8681 23.5199C68.0631 23.7379 68.1606 24.0181 68.1606 24.3295C68.1606 24.7032 68.0306 25.0457 67.7706 25.2948C67.5106 25.5439 67.1857 25.6684 66.7632 25.6684C66.4707 25.6684 66.2432 25.6062 66.0158 25.4505C65.8208 25.2948 65.6258 25.1391 65.4308 24.9523C64.5209 24.0804 63.416 23.6445 62.1161 23.6445C60.8162 23.6445 59.8088 24.0181 59.0289 24.7654C58.8989 24.89 58.8014 25.0768 58.8014 25.3259C58.8014 25.575 58.9314 25.7307 59.1589 25.8241L65.4308 27.8169C66.3082 28.1283 66.8932 28.4708 67.2182 28.7822C67.9006 29.4361 68.2256 30.2145 68.2256 31.1175C68.2256 31.7714 68.0306 32.363 67.6731 32.8924C67.3157 33.4217 66.8282 33.8576 66.2432 34.2313C65.6583 34.6049 65.0084 34.8852 64.2934 35.072C63.5785 35.2588 62.831 35.3834 62.1161 35.3834C59.8738 35.3834 57.9565 34.5427 56.3641 32.8301C56.1691 32.581 56.0716 32.3008 56.0716 31.9894C56.0716 31.6157 56.2016 31.2732 56.4616 31.0241C56.7216 30.775 57.0466 30.6505 57.469 30.6505C57.7615 30.6505 58.0215 30.7439 58.2165 30.8996C58.4114 31.0552 58.6064 31.2421 58.7689 31.3666C59.6788 32.2385 60.7837 32.6744 62.1161 32.6744C63.3835 32.6744 64.4234 32.3008 65.2033 31.5223C65.3333 31.3666 65.3983 31.2109 65.3983 30.993C65.3983 30.7439 65.2683 30.5882 65.0408 30.4948L58.7364 28.502Z" fill="#12284C"/>
<path fill-rule="evenodd" clip-rule="evenodd" d="M93.0678 33.5144C93.0678 34.0126 92.8728 34.4486 92.5154 34.8222C92.1579 35.1647 91.7029 35.3515 91.1505 35.3515C90.6305 35.3515 90.1756 35.1647 89.7856 34.8222C89.4281 34.4797 89.2332 34.0438 89.2332 33.5144C89.2332 33.0162 89.4281 32.5803 89.7856 32.2066C90.1431 31.8641 90.598 31.6773 91.1505 31.6773C91.6704 31.6773 92.1254 31.8641 92.5154 32.2066C92.9053 32.5803 93.0678 33.0162 93.0678 33.5144Z" fill="#12284C"/>
<path fill-rule="evenodd" clip-rule="evenodd" d="M101.777 32.6745C102.427 32.6745 103.045 32.5499 103.629 32.3008C104.214 32.0517 104.702 31.7403 105.124 31.3355C105.547 30.9308 105.872 30.4326 106.132 29.9032C106.392 29.3739 106.489 28.7823 106.489 28.1595C106.489 27.5368 106.359 26.9763 106.132 26.4158C105.872 25.8865 105.547 25.3883 105.124 24.9835C104.702 24.5787 104.214 24.2362 103.629 24.0182C103.045 23.7691 102.46 23.6445 101.777 23.6445C101.127 23.6445 100.51 23.7691 99.9248 24.0182C99.3398 24.2673 98.8524 24.5787 98.4299 24.9835C98.0075 25.3883 97.6825 25.8553 97.4225 26.4158C97.1625 26.9763 97.065 27.5368 97.065 28.1595C97.065 28.7823 97.195 29.3739 97.4225 29.9032C97.6825 30.4637 98.0075 30.9308 98.4299 31.3355C98.8524 31.7403 99.3398 32.0517 99.9248 32.3008C100.51 32.5499 101.127 32.6745 101.777 32.6745ZM97.065 22.5547C98.3974 21.4961 99.9573 20.9667 101.777 20.9667C103.824 20.9667 105.612 21.6829 107.107 23.0841C107.854 23.7691 108.407 24.5475 108.764 25.4194C109.121 26.2601 109.316 27.1942 109.316 28.1906C109.316 30.1834 108.569 31.896 107.107 33.2972C105.612 34.6984 103.857 35.4146 101.777 35.4146C99.6973 35.4146 97.9425 34.6984 96.4476 33.2972C94.9852 31.896 94.2378 30.1834 94.2378 28.1906V16.1092C94.2378 15.7356 94.3678 15.3931 94.6278 15.144C94.8877 14.8949 95.2127 14.7703 95.6352 14.7703C96.0251 14.7703 96.3501 14.8949 96.6426 15.144C96.9026 15.3931 97.065 15.7045 97.065 16.1092V22.5547Z" fill="#12284C"/>
<path fill-rule="evenodd" clip-rule="evenodd" d="M111.721 33.982V22.3053C111.721 21.9317 111.851 21.6203 112.143 21.3401C112.403 21.091 112.761 20.9353 113.118 20.9353C113.508 20.9353 113.833 21.0598 114.093 21.3401C114.353 21.5892 114.515 21.9317 114.515 22.3053V34.0131C114.515 34.3867 114.353 34.6981 114.093 34.9784C113.833 35.2275 113.476 35.3831 113.118 35.3831C112.728 35.3831 112.403 35.2586 112.143 34.9784C111.851 34.6981 111.721 34.3867 111.721 33.982ZM114.775 18.382C114.775 18.8179 114.613 19.1916 114.288 19.5029C113.963 19.8143 113.573 19.97 113.118 19.97C112.663 19.97 112.273 19.8143 111.948 19.5029C111.623 19.1916 111.461 18.8179 111.461 18.382C111.461 17.9461 111.623 17.5724 111.948 17.261C112.273 16.9497 112.663 16.794 113.118 16.794C113.573 16.794 113.963 16.9497 114.288 17.261C114.613 17.5724 114.775 17.9461 114.775 18.382Z" fill="#12284C"/>
<path fill-rule="evenodd" clip-rule="evenodd" d="M129.173 28.1595C129.173 27.5368 129.043 26.9763 128.815 26.4158C128.555 25.8865 128.23 25.3883 127.808 24.9835C127.385 24.5787 126.898 24.2362 126.313 24.0182C125.728 23.7691 125.143 23.6446 124.461 23.6446C123.811 23.6446 123.193 23.7691 122.608 24.0182C122.023 24.2673 121.536 24.5787 121.113 24.9835C120.691 25.3883 120.366 25.8553 120.106 26.4158C119.846 26.9763 119.749 27.5368 119.749 28.1595C119.749 28.7823 119.879 29.3739 120.106 29.9032C120.366 30.4637 120.691 30.9308 121.113 31.3355C121.536 31.7403 122.023 32.0517 122.608 32.3008C123.193 32.5499 123.811 32.6745 124.461 32.6745C125.111 32.6745 125.728 32.5499 126.313 32.3008C126.898 32.0517 127.385 31.7403 127.808 31.3355C128.23 30.9308 128.555 30.4326 128.815 29.9032C129.043 29.3427 129.173 28.7511 129.173 28.1595ZM124.461 20.9356C126.248 20.9356 127.808 21.4649 129.173 22.5236V16.1092C129.173 15.7356 129.303 15.3931 129.563 15.144C129.823 14.8949 130.148 14.7703 130.57 14.7703C130.96 14.7703 131.285 14.8949 131.577 15.144C131.837 15.3931 132 15.7045 132 16.1092V28.1595C132 30.1523 131.253 31.8649 129.79 33.2661C128.295 34.6673 126.54 35.3834 124.461 35.3834C122.381 35.3834 120.626 34.6673 119.131 33.2661C117.669 31.8649 116.921 30.1523 116.921 28.1595C116.921 26.1667 117.669 24.4853 119.131 23.0529C120.626 21.6517 122.381 20.9356 124.461 20.9356Z" fill="#12284C"/>
<path d="M77.4864 32.1084H83.2622C84.8949 32.1084 85.7112 32.757 85.7112 34.0542C85.7112 35.3514 84.9565 36 83.4471 36H72.912C71.2691 36 70.4476 35.3514 70.4476 34.0542C70.4476 33.5641 70.6889 33.0597 71.1715 32.5408C72.0649 31.5895 73.41 30.153 75.2069 28.2312C76.7882 26.5304 78.0614 25.0266 79.0266 23.7198C79.7659 22.7205 80.1356 21.8077 80.1356 20.9813C80.1356 20.3471 79.92 19.809 79.4887 19.367C79.0677 18.925 78.5235 18.704 77.8561 18.704C76.8498 18.704 76.1156 19.1172 75.6536 19.9435C75.5201 20.1837 75.2993 20.7459 74.9913 21.6299C74.56 22.8694 73.8772 23.4892 72.9428 23.4892C72.2446 23.4892 71.6849 23.2922 71.2639 22.8983C70.843 22.5043 70.6325 21.9806 70.6325 21.3272C70.6325 19.4919 71.382 17.9112 72.8812 16.5852C74.3495 15.2784 76.0746 14.625 78.0563 14.625C80.0689 14.625 81.7272 15.1727 83.0312 16.2681C84.3763 17.402 85.0489 18.901 85.0489 20.7651C85.0489 22.5812 84.1248 24.5894 82.2765 26.7899C81.3934 27.77 79.7967 29.5428 77.4864 32.1084Z" fill="url(#paint0_linear_1_50)"/>
<path fill-rule="evenodd" clip-rule="evenodd" d="M31.4397 7.6401C31.9272 7.51555 32.4471 7.51555 32.9671 7.57783L25.1677 5.30478C24.4853 5.11795 23.8029 5.11795 23.1854 5.2425C22.5355 5.36706 21.9505 5.64729 21.4306 6.11436L1.18486 24.143C-0.310013 25.482 -0.407506 27.755 0.989872 29.1873C2.38725 30.6197 4.75954 30.7131 6.25441 29.3742L24.9728 12.7155L29.6848 8.51196C30.2048 8.07603 30.8222 7.76465 31.4397 7.6401Z" fill="url(#paint1_linear_1_50)"/>
<path fill-rule="evenodd" clip-rule="evenodd" d="M40.6784 8.84996C42.9532 9.3793 45.423 8.75655 47.1453 7.23081L49.1602 5.45596C50.0376 4.67752 50.4276 3.61884 50.3301 2.56017C50.2651 1.90628 49.9726 1.31466 49.4526 0.878734L49.4201 0.847596C47.9578 -0.366771 45.7805 -0.242221 44.3831 1.00328L36.8438 7.72901C38.0461 8.10266 39.411 8.56973 40.6784 8.84996Z" fill="url(#paint2_linear_1_50)"/>
<path fill-rule="evenodd" clip-rule="evenodd" d="M41.5788 9.97516C41.1239 9.94402 40.6684 9.82523 40.214 9.69492L35.8593 8.41828C35.5019 8.32487 35.0469 8.20032 34.657 8.07577C34.072 7.92008 33.4221 7.8578 32.8371 8.01349C32.1547 8.13804 31.5047 8.44942 30.9523 8.91648L26.1427 13.0578L36.0543 15.9536C36.6131 16.0977 37.1345 16.0977 37.7138 15.9867C38.3638 15.8621 38.8816 15.4865 39.4015 15.0195L44.0811 10.847L44.5361 10.4422L47.0709 8.20032C45.576 9.5081 43.5612 10.162 41.5788 9.97516Z" fill="url(#paint3_linear_1_50)"/>
<defs>
<linearGradient id="paint0_linear_1_50" x1="72.8128" y1="-14.7764" x2="110.959" y2="7.01301" gradientUnits="userSpaceOnUse">
<stop offset="0.3282" stop-color="#7E4D99"/>
<stop offset="0.3436" stop-color="#7B509E"/>
<stop offset="0.4712" stop-color="#6867C1"/>
<stop offset="0.6007" stop-color="#5979DC"/>
<stop offset="0.7312" stop-color="#4F86EF"/>
<stop offset="0.8635" stop-color="#488DFB"/>
<stop offset="1" stop-color="#4690FF"/>
</linearGradient>
<linearGradient id="paint1_linear_1_50" x1="-13.0705" y1="-16.3775" x2="23.7947" y2="30.1656" gradientUnits="userSpaceOnUse">
<stop stop-color="#4690FF"/>
<stop offset="1" stop-color="#9966E0"/>
</linearGradient>
<linearGradient id="paint2_linear_1_50" x1="26.7627" y1="25.1098" x2="54.5553" y2="-9.43912" gradientUnits="userSpaceOnUse">
<stop offset="0.3282" stop-color="#7E4D99"/>
<stop offset="0.3436" stop-color="#7B509E"/>
<stop offset="0.4712" stop-color="#6867C1"/>
<stop offset="0.6007" stop-color="#5979DC"/>
<stop offset="0.7312" stop-color="#4F86EF"/>
<stop offset="0.8635" stop-color="#488DFB"/>
<stop offset="1" stop-color="#4690FF"/>
</linearGradient>
<linearGradient id="paint3_linear_1_50" x1="29.3856" y1="-3.27728" x2="42.6577" y2="24.0085" gradientUnits="userSpaceOnUse">
<stop offset="0.3282" stop-color="#7E4D99"/>
<stop offset="0.3436" stop-color="#7B509E"/>
<stop offset="0.4712" stop-color="#6867C1"/>
<stop offset="0.6007" stop-color="#5979DC"/>
<stop offset="0.7312" stop-color="#4F86EF"/>
<stop offset="0.8635" stop-color="#488DFB"/>
<stop offset="1" stop-color="#4690FF"/>
</linearGradient>
</defs>
</svg>
