<svg width="496" height="214" viewBox="0 0 496 214" fill="none" xmlns="http://www.w3.org/2000/svg">
<path fill-rule="evenodd" clip-rule="evenodd" d="M248 3.79151e-10C191.509 -0.000105228 137.332 22.4408 97.3866 62.3859C57.4413 102.331 35.0001 156.508 35 213H461.001C461.001 156.508 438.56 102.331 398.614 62.3859C358.669 22.4408 304.492 -0.000106511 248 3.79151e-10Z" fill="#F3F4F6"/>
<path fill-rule="evenodd" clip-rule="evenodd" d="M1 213H494.39H1Z" fill="#F6F7FC"/>
<path d="M1 213H494.39" stroke="#12284C" stroke-width="2" stroke-linecap="round" stroke-linejoin="round"/>
<path d="M137.824 103.995H84.5258C82.1974 103.995 80.3098 105.883 80.3098 108.211V208.784C80.3098 211.112 82.1974 213 84.5258 213H137.824C140.152 213 142.04 211.112 142.04 208.784V108.211C142.04 105.883 140.152 103.995 137.824 103.995Z" fill="#9AC2FF"/>
<path d="M387.101 65.6824H201.478C197.907 65.6824 195.012 68.5773 195.012 72.1484V198.333C195.012 201.905 197.907 204.8 201.478 204.8H387.101C390.672 204.8 393.567 201.905 393.567 198.333V72.1484C393.567 68.5773 390.672 65.6824 387.101 65.6824Z" fill="#9AC2FF" stroke="#12284C" stroke-width="2"/>
<path fill-rule="evenodd" clip-rule="evenodd" d="M173.486 195.972C173.486 195.972 174.082 200.663 177.181 205.771C181.316 212.587 187.301 213 187.301 213H294.29H401.278C401.278 213 407.263 212.587 411.398 205.771C414.498 200.663 415.094 195.972 415.094 195.972H294.29H173.486Z" fill="#9AC2FF"/>
<path fill-rule="evenodd" clip-rule="evenodd" d="M265.665 195.972C265.665 199.37 268.401 202.106 271.799 202.106H316.781C320.179 202.106 322.915 199.37 322.915 195.972H265.665Z" fill="#C0D2E8"/>
<path fill-rule="evenodd" clip-rule="evenodd" d="M173.486 195.972C173.486 195.972 174.082 200.663 177.181 205.771C181.316 212.587 187.301 213 187.301 213H294.29H401.278C401.278 213 407.263 212.587 411.398 205.771C414.498 200.663 415.094 195.972 415.094 195.972H294.29H173.486V195.972Z" stroke="#12284C" stroke-width="2" stroke-linecap="round" stroke-linejoin="round"/>
<path d="M384.519 72.9133H204.06C203.057 72.9133 202.243 73.727 202.243 74.7308V182.424C202.243 183.427 203.057 184.241 204.06 184.241H384.519C385.523 184.241 386.336 183.427 386.336 182.424V74.7308C386.336 73.727 385.523 72.9133 384.519 72.9133Z" fill="#E0E3F6" stroke="#12284C" stroke-width="2"/>
<path d="M317.816 95.96H231.94C230.309 95.96 228.987 97.2822 228.987 98.9133V168.204C228.987 169.836 230.309 171.158 231.94 171.158H317.816C319.447 171.158 320.769 169.836 320.769 168.204V98.9133C320.769 97.2822 319.447 95.96 317.816 95.96Z" fill="#F6F7FC"/>
<path fill-rule="evenodd" clip-rule="evenodd" d="M231.94 95.9604C230.304 95.9604 228.987 97.2774 228.987 98.9136V101.797H320.77V98.9136C320.77 97.2774 319.452 95.9604 317.815 95.9604H231.94Z" fill="#9AC2FF"/>
<path d="M319.498 98.8785C319.498 97.9688 318.761 97.2314 317.851 97.2314C316.942 97.2314 316.204 97.9688 316.204 98.8785C316.204 99.7881 316.942 100.526 317.851 100.526C318.761 100.526 319.498 99.7881 319.498 98.8785Z" fill="#E0E3F6"/>
<path d="M314.557 98.8785C314.557 97.9688 313.82 97.2314 312.91 97.2314C312 97.2314 311.263 97.9688 311.263 98.8785C311.263 99.7881 312 100.526 312.91 100.526C313.82 100.526 314.557 99.7881 314.557 98.8785Z" fill="#C0D2E8"/>
<path d="M317.816 95.96H231.94C230.309 95.96 228.987 97.2822 228.987 98.9133V168.204C228.987 169.836 230.309 171.158 231.94 171.158H317.816C319.447 171.158 320.769 169.836 320.769 168.204V98.9133C320.769 97.2822 319.447 95.96 317.816 95.96Z" stroke="#9AC2FF" stroke-width="2"/>
<path d="M238.529 148.67L253.068 135.658L267.608 144.493L282.148 126.983L296.688 129.232L311.227 115.898" stroke="#9AC2FF" stroke-width="2" stroke-linecap="round" stroke-linejoin="round"/>
<path d="M253.068 137.702C254.198 137.702 255.113 136.787 255.113 135.658C255.113 134.528 254.198 133.613 253.068 133.613C251.939 133.613 251.024 134.528 251.024 135.658C251.024 136.787 251.939 137.702 253.068 137.702Z" fill="#9AC2FF"/>
<path d="M267.608 146.538C268.737 146.538 269.653 145.622 269.653 144.493C269.653 143.364 268.737 142.448 267.608 142.448C266.479 142.448 265.563 143.364 265.563 144.493C265.563 145.622 266.479 146.538 267.608 146.538Z" fill="#9AC2FF"/>
<path d="M282.148 129.028C283.277 129.028 284.193 128.112 284.193 126.983C284.193 125.854 283.277 124.938 282.148 124.938C281.019 124.938 280.103 125.854 280.103 126.983C280.103 128.112 281.019 129.028 282.148 129.028Z" fill="#9AC2FF"/>
<path d="M238.529 150.714C239.658 150.714 240.573 149.799 240.573 148.67C240.573 147.541 239.658 146.625 238.529 146.625C237.399 146.625 236.484 147.541 236.484 148.67C236.484 149.799 237.399 150.714 238.529 150.714Z" fill="#9AC2FF"/>
<path d="M296.688 131.276C297.817 131.276 298.732 130.361 298.732 129.232C298.732 128.103 297.817 127.187 296.688 127.187C295.558 127.187 294.643 128.103 294.643 129.232C294.643 130.361 295.558 131.276 296.688 131.276Z" fill="#9AC2FF"/>
<path d="M311.227 117.943C312.357 117.943 313.272 117.028 313.272 115.899C313.272 114.769 312.357 113.854 311.227 113.854C310.098 113.854 309.183 114.769 309.183 115.899C309.183 117.028 310.098 117.943 311.227 117.943Z" fill="#9AC2FF"/>
<path d="M240.537 155.45H236.521C236.188 155.45 235.918 155.719 235.918 156.052V164.566C235.918 164.899 236.188 165.169 236.521 165.169H240.537C240.869 165.169 241.139 164.899 241.139 164.566V156.052C241.139 155.719 240.869 155.45 240.537 155.45Z" fill="#9AC2FF" stroke="#C0D2E8" stroke-width="2"/>
<path d="M254.517 148.433H251.619C251.051 148.433 250.59 148.894 250.59 149.462V164.007C250.59 164.576 251.051 165.036 251.619 165.036H254.517C255.086 165.036 255.546 164.576 255.546 164.007V149.462C255.546 148.894 255.086 148.433 254.517 148.433Z" fill="#9AC2FF" stroke="#C0D2E8" stroke-width="2"/>
<path d="M269.26 151.039H265.956C265.475 151.039 265.086 151.429 265.086 151.91V164.21C265.086 164.691 265.475 165.081 265.956 165.081H269.26C269.741 165.081 270.131 164.691 270.131 164.21V151.91C270.131 151.429 269.741 151.039 269.26 151.039Z" fill="#9AC2FF" stroke="#C0D2E8" stroke-width="2"/>
<path d="M283.627 148.828H280.668C280.113 148.828 279.663 149.278 279.663 149.834V164.038C279.663 164.593 280.113 165.043 280.668 165.043H283.627C284.183 165.043 284.632 164.593 284.632 164.038V149.834C284.632 149.278 284.183 148.828 283.627 148.828Z" fill="#9AC2FF" stroke="#C0D2E8" stroke-width="2"/>
<path d="M297.352 137.976H296.023C295.101 137.976 294.355 138.723 294.355 139.644V163.223C294.355 164.144 295.101 164.891 296.023 164.891H297.352C298.274 164.891 299.021 164.144 299.021 163.223V139.644C299.021 138.723 298.274 137.976 297.352 137.976Z" fill="#9AC2FF" stroke="#C0D2E8" stroke-width="2"/>
<path d="M311.375 130.826H311.08C309.917 130.826 308.974 131.77 308.974 132.933V162.705C308.974 163.869 309.917 164.812 311.08 164.812H311.375C312.538 164.812 313.481 163.869 313.481 162.705V132.933C313.481 131.77 312.538 130.826 311.375 130.826Z" fill="#9AC2FF" stroke="#C0D2E8" stroke-width="2"/>
<path fill-rule="evenodd" clip-rule="evenodd" d="M245.077 108.956C239.986 108.956 235.858 113.085 235.858 118.177C235.858 123.269 239.986 127.398 245.077 127.398C248.327 127.394 251.334 125.679 252.993 122.885L245.077 118.177V108.956Z" fill="#E0E3F6" stroke="#C0D2E8" stroke-linecap="round" stroke-linejoin="round"/>
<path fill-rule="evenodd" clip-rule="evenodd" d="M247.006 107.782V117.003L254.921 121.711C255.771 120.287 256.222 118.661 256.226 117.003C256.226 115.792 255.987 114.593 255.524 113.474C255.06 112.356 254.381 111.339 253.525 110.483C252.669 109.627 251.653 108.947 250.534 108.484C249.415 108.021 248.216 107.782 247.006 107.782Z" fill="#E0E3F6" stroke="#C0D2E8" stroke-linecap="round" stroke-linejoin="round"/>
<path d="M378.909 77.5579H334.267C332.73 77.5579 331.484 78.8039 331.484 80.3409V90.2234C331.484 91.7604 332.73 93.0064 334.267 93.0064H378.909C380.446 93.0064 381.692 91.7604 381.692 90.2234V80.3409C381.692 78.8039 380.446 77.5579 378.909 77.5579Z" fill="#F6F7FC" stroke="#C0D2E8"/>
<path d="M335.978 80.4049C335.978 79.4952 335.241 78.7578 334.331 78.7578C333.421 78.7578 332.684 79.4952 332.684 80.4049C332.684 81.3145 333.421 82.052 334.331 82.052C335.241 82.052 335.978 81.3145 335.978 80.4049Z" fill="#C0D2E8"/>
<path fill-rule="evenodd" clip-rule="evenodd" d="M340.12 85.2822H376.094H340.12Z" fill="#F6F7FC"/>
<path d="M340.12 85.2822H376.094" stroke="#C0D2E8" stroke-linecap="round" stroke-linejoin="round"/>
<path fill-rule="evenodd" clip-rule="evenodd" d="M340.12 81.61H374.197H340.12Z" fill="#F6F7FC"/>
<path d="M340.12 81.61H374.197" stroke="#C0D2E8" stroke-linecap="round" stroke-linejoin="round"/>
<path fill-rule="evenodd" clip-rule="evenodd" d="M340.12 88.9547H361.945H340.12Z" fill="#F6F7FC"/>
<path d="M340.12 88.9547H361.945" stroke="#C0D2E8" stroke-linecap="round" stroke-linejoin="round"/>
<path d="M142.04 109.822H80.3098V204.438H142.04V109.822Z" fill="#E0E3F6"/>
<path fill-rule="evenodd" clip-rule="evenodd" d="M80.3098 109.822H142.04H80.3098Z" fill="#E0E3F6"/>
<path d="M80.3098 109.822H142.04" stroke="#12284C" stroke-width="2" stroke-linecap="round" stroke-linejoin="round"/>
<path d="M114.227 105.688H108.123C107.448 105.688 106.902 106.235 106.902 106.909C106.902 107.583 107.448 108.13 108.123 108.13H114.227C114.901 108.13 115.448 107.583 115.448 106.909C115.448 106.235 114.901 105.688 114.227 105.688Z" fill="#12284C"/>
<path d="M103.239 108.13C103.913 108.13 104.46 107.583 104.46 106.909C104.46 106.235 103.913 105.688 103.239 105.688C102.565 105.688 102.018 106.235 102.018 106.909C102.018 107.583 102.565 108.13 103.239 108.13Z" fill="#12284C"/>
<path d="M115.657 206.587H106.693C106.164 206.587 105.735 207.016 105.735 207.545V209.893C105.735 210.422 106.164 210.851 106.693 210.851H115.657C116.186 210.851 116.615 210.422 116.615 209.893V207.545C116.615 207.016 116.186 206.587 115.657 206.587Z" fill="#12284C"/>
<path d="M137.824 103.995H84.5258C82.1974 103.995 80.3098 105.883 80.3098 108.211V208.784C80.3098 211.112 82.1974 213 84.5258 213H137.824C140.152 213 142.04 211.112 142.04 208.784V108.211C142.04 105.883 140.152 103.995 137.824 103.995Z" stroke="#12284C" stroke-width="2"/>
<path d="M294.29 70.8142C295.127 70.8142 295.806 70.1353 295.806 69.2978C295.806 68.4603 295.127 67.7814 294.29 67.7814C293.452 67.7814 292.773 68.4603 292.773 69.2978C292.773 70.1353 293.452 70.8142 294.29 70.8142Z" fill="#12284C"/>
<path d="M136.179 114.023H86.1702C85.3071 114.023 84.6075 114.723 84.6075 115.586V148.795C84.6075 149.658 85.3071 150.358 86.1702 150.358H136.179C137.043 150.358 137.742 149.658 137.742 148.795V115.586C137.742 114.723 137.043 114.023 136.179 114.023Z" fill="#F6F7FC"/>
<path d="M137.011 154.265H85.3384C84.9347 154.265 84.6075 154.592 84.6075 154.996V170.529C84.6075 170.933 84.9347 171.26 85.3384 171.26H137.011C137.415 171.26 137.742 170.933 137.742 170.529V154.996C137.742 154.592 137.415 154.265 137.011 154.265Z" fill="#F6F7FC"/>
<path d="M137.011 175.167H85.3384C84.9347 175.167 84.6075 175.494 84.6075 175.898V191.431C84.6075 191.835 84.9347 192.162 85.3384 192.162H137.011C137.415 192.162 137.742 191.835 137.742 191.431V175.898C137.742 175.494 137.415 175.167 137.011 175.167Z" fill="#F6F7FC"/>
<path d="M87.5287 115.976H86.5609V148.404H87.5287V115.976Z" fill="#E0E3F6"/>
<path d="M101.237 135.261H97.7083C97.5211 135.261 97.3694 135.413 97.3694 135.6V147.582C97.3694 147.769 97.5211 147.921 97.7083 147.921H101.237C101.424 147.921 101.576 147.769 101.576 147.582V135.6C101.576 135.413 101.424 135.261 101.237 135.261Z" fill="#9AC2FF"/>
<path d="M93.0595 133.258H89.638C89.4211 133.258 89.2454 133.434 89.2454 133.651V147.528C89.2454 147.745 89.4211 147.921 89.638 147.921H93.0595C93.2763 147.921 93.4521 147.745 93.4521 147.528V133.651C93.4521 133.434 93.2763 133.258 93.0595 133.258Z" fill="#9AC2FF"/>
<path d="M108.995 130.634H105.714C105.459 130.634 105.251 130.841 105.251 131.097V147.458C105.251 147.713 105.459 147.921 105.714 147.921H108.995C109.251 147.921 109.458 147.713 109.458 147.458V131.097C109.458 130.841 109.251 130.634 108.995 130.634Z" fill="#9AC2FF"/>
<path d="M117.45 133.949H113.991C113.785 133.949 113.617 134.117 113.617 134.323V147.547C113.617 147.753 113.785 147.921 113.991 147.921H117.45C117.657 147.921 117.824 147.753 117.824 147.547V134.323C117.824 134.117 117.657 133.949 117.45 133.949Z" fill="#9AC2FF"/>
<path d="M125.485 130.62H122.205C121.949 130.62 121.741 130.827 121.741 131.083V147.458C121.741 147.713 121.949 147.921 122.205 147.921H125.485C125.741 147.921 125.948 147.713 125.948 147.458V131.083C125.948 130.827 125.741 130.62 125.485 130.62Z" fill="#9AC2FF"/>
<path d="M133.439 124.271H130.499C130.149 124.271 129.865 124.555 129.865 124.904V147.287C129.865 147.637 130.149 147.921 130.499 147.921H133.439C133.789 147.921 134.072 147.637 134.072 147.287V124.904C134.072 124.555 133.789 124.271 133.439 124.271Z" fill="#9AC2FF"/>
<path d="M135.789 148.404V147.437H86.5609V148.404H135.789Z" fill="#E0E3F6"/>
<path d="M88.383 162.762H133.069" stroke="#E0E3F6" stroke-width="2" stroke-linejoin="round"/>
<path d="M88.5212 158.998H133.967" stroke="#E0E3F6" stroke-width="2" stroke-linejoin="round"/>
<path d="M88.383 166.527C88.8665 166.527 109.448 166.527 109.448 166.527" stroke="#E0E3F6" stroke-width="2" stroke-linejoin="round"/>
<path d="M88.383 183.665H114.804" stroke="#E0E3F6" stroke-width="2" stroke-linejoin="round"/>
<path d="M88.5211 179.901H127.032" stroke="#E0E3F6" stroke-width="2" stroke-linejoin="round"/>
<path d="M88.383 187.429H121.169" stroke="#E0E3F6" stroke-width="2" stroke-linejoin="round"/>
<path fill-rule="evenodd" clip-rule="evenodd" d="M85.3386 196.07C84.9337 196.07 84.6072 196.395 84.6072 196.8V204.438H137.743V196.8C137.743 196.395 137.416 196.07 137.011 196.07H85.3386Z" fill="#F6F7FC"/>
<path fill-rule="evenodd" clip-rule="evenodd" d="M80.3098 204.438H142.04H80.3098Z" fill="#E0E3F6"/>
<path d="M80.3098 204.438H142.04" stroke="#12284C" stroke-width="2" stroke-linecap="round" stroke-linejoin="round"/>
<path d="M88.5211 200.803H127.032" stroke="#E0E3F6" stroke-width="2" stroke-linejoin="round"/>
</svg>